<svg id="Group_252" data-name="Group 252" xmlns="http://www.w3.org/2000/svg" width="148.025" height="147.221" viewBox="0 0 148.025 147.221">
  <g id="Group_45" data-name="Group 45" transform="translate(0 0)">
    <path id="Path_117" data-name="Path 117" d="M182.275,404.114a71.389,71.389,0,0,1-2.069,18.953c-2.264,8.586-6.721,14.141-11.668,21.146-5.511,7.8-10.434,16.11-18.885,20.668a200.222,200.222,0,0,1-18.256,8.409c-18.858,7.778-40.125,4.95-57.9-4.33-8.648-4.513-17.577-10.688-23.879-18.235-12.362-14.808-16.326-35.355-15.163-54.192,1.19-19.257,7.875-31,21.42-44.449,4.74-4.7,6.733-7.606,13.023-9.8,7.958-2.766,15.337-7.677,23.3-9.445a93.737,93.737,0,0,1,27.447-1.992c9.333.741,20.157,5.248,28.256,10.145a69.356,69.356,0,0,1,28.923,33.72A86.282,86.282,0,0,1,182.275,404.114Z" transform="translate(-34.26 -330.577)" fill="#0b43aa"/>
    <g id="Group_44" data-name="Group 44" transform="translate(42.702 19.118)">
      <path id="Path_118" data-name="Path 118" d="M57.937,384.894c-8.619,15.2-14.77,32.111-1.559,44.594,14.466,13.66,35.506,12.305,46.022.508,7.819-8.778,8.885-16.547,7.627-26.8-1.561-12.745-13.336-27.409-20.178-37.929-6.4-9.844-6.116-18.855-8.6-25.511-1.24-3.329-1.62-3.241-2.426-1.576-1.452,9.484-6.815,20.284-10.886,27.766C65.033,371.3,62.087,377.586,57.937,384.894Z" transform="translate(-48.727 -337.054)" fill="#b1e7f7"/>
    </g>
    <path id="Path_119" data-name="Path 119" d="M61.474,360.925c.3-2.574.531-5.186.581-7.893A43.114,43.114,0,0,0,51.84,376.914c-.75,7.639,2.155,18.232,9.673,21.695,5.3,2.438,13.383,1.133,9.256-6.072-2.9-5.056-8.02-7.571-9.859-13.356C59.1,373.452,60.816,366.745,61.474,360.925Z" transform="translate(-0.172 -286.753)" fill="#5ad0ef"/>
  </g>
</svg>
