<svg xmlns="http://www.w3.org/2000/svg" width="145.627" height="144.839" viewBox="0 0 145.627 144.839">
  <g id="Group_321" data-name="Group 321" transform="translate(-1500.733 -559.802)">
    <g id="Group_255" data-name="Group 255" transform="translate(1500.733 559.802)">
      <path id="Path_105" data-name="Path 105" d="M425.118,328.2a69.975,69.975,0,0,1-2.036,18.643c-2.227,8.45-6.612,13.915-11.479,20.806-5.419,7.675-10.265,15.85-18.579,20.336a197.66,197.66,0,0,1-17.958,8.267c-18.559,7.652-39.475,4.873-56.966-4.26-8.508-4.44-17.3-10.515-23.5-17.94-12.159-14.566-16.059-34.777-14.914-53.313,1.17-18.951,7.748-30.5,21.074-43.73,4.664-4.629,6.621-7.486,12.809-9.641,7.829-2.721,15.089-7.553,22.932-9.29a92,92,0,0,1,27-1.96c9.182.729,19.834,5.16,27.8,9.978a68.244,68.244,0,0,1,28.455,33.174A84.9,84.9,0,0,1,425.118,328.2Z" transform="translate(-279.5 -255.848)" fill="#f8353c"/>
      <path id="Path_106" data-name="Path 106" d="M334.326,281.189a4.665,4.665,0,0,0,.633.287c4,1.466,2.82.674,6.76-1.908,11.952-7.832,25.139-19.81,38.1-5.773,15.356,16.631,7.5,35.779-7.957,48.434-8.224,6.734-13.8,14.011-20.046,22.418a49.748,49.748,0,0,1-13.041,12.138c-4.391,2.68-22.912-21.829-26.086-25.331-8.259-9.11-16.538-16.854-22.682-27.8-3.006-5.352-4.428-12.948-3.1-18.988,3.822-17.325,26.182-19.79,38.628-11.482C328.222,274.974,331.48,279.661,334.326,281.189Z" transform="translate(-266.347 -234.022)" fill="#4bb131"/>
      <g id="Group_36" data-name="Group 36" transform="translate(25.455 53.393)">
        <path id="Path_107" data-name="Path 107" d="M288.367,305.463c.293-1.487,1.313-2.95,1.89-4.324,1.943-4.608.984-8.006.816-12.844-.125-3.551.865-9.051,3.461-11.633,2.489-2.477,6.731-2.59,10.007-2.332,1.356.1,2.523.816,3.836.993,1.368.183,2.927-.131,4.353.009,3.31.325,6.537,1.2,9.821,1.728a52.154,52.154,0,0,0,13.39.221,128.007,128.007,0,0,1,13.009-.828c3.226.02,7.782.383,10.681,1.832,2.05,1.019,2.643,3.273,3.589,5.181.787,1.583,1.774,3.319,2.782,5.143,2.111,2.939,3.647,6.267,5.854,9.159-2.2-2.884,8.416-3.8,8.4-3.659-.261,3.383-3.627,4.237-6.2,5.462,1.188,1.382,3.162,1.374,4.237,2.927,1.321,1.9.418,3.154-.032,5.181-.494,2.207-.2,4.452-.526,6.661a30.182,30.182,0,0,0-.456,5.936,4.824,4.824,0,0,1-2.474,1.678c-.952-.575-2.227-.642-3.136-1.269a8.874,8.874,0,0,1-2.184-2.555c-1.083-1.719-2.056-3.764-3.067-5.018-.88-1.089-1.205-2.529-2.178-3.549a8.46,8.46,0,0,0-2.666-1.728c-3.308-1.086-10.89-3.575-13.32-.023-.552.8-.163,2.4-.285,3.328-.258,1.972-1.205,3.9-1.272,5.906-.113,3.572,2.108,4.405,3.043,7.341a4.275,4.275,0,0,1-3.447.2c-1.3-.476-.755-.16-1.423-1.423a39.982,39.982,0,0,1-1.426-4.01c-.5.816-.43,5.474.993,5.41-1.394.061-3.244-.331-4.417.4-.563-1.051-.343-3.435-1.809-3.418,1.405-4.129,1.394-7.931,1.347-12.252a7.876,7.876,0,0,0-.212-2.654c-.537-1.519-.134-1.037-1.867-1.223-3.3-.351-6.513.523-9.795.209-3.064-.29-6.211-.735-9.2-1.324-3.1-.607-6.656-1.254-9.746-.375-.926.261-2.579,1.289-2.744,2.352s1.269,1.992,1.336,3.215c.157,3.011.142,6.348,1.89,8.982,1.405,2.117,3.827,3.546,4.623,6.081-2.062-.134-5.047,1.156-6.307-.581-.465-.645-.044-1.664-.8-2.3-.932-.781-2.015,0-2.625-1.411-.25-.575.041-2.111-.038-2.82a7.691,7.691,0,0,0-.807-2.843,46.265,46.265,0,0,1-3.1-6.058c-1.255,1.588-2.526,6.322-2.416,8.3.16,2.828,3.029,5.175,2.849,7.919-1.615.407-3.128.081-4.658.2,1.2-2.5-2.689-4.138-2.416-6.691.134-1.26.964-2.219.984-3.665a20.008,20.008,0,0,0-.668-5.724c-.534-1.838-1.1-2.123.058-3.833,4.179-6.185.2-10.773-.874-17.351-.642,1.588.171,4.916.261,6.714a11.029,11.029,0,0,1-.981,5.758c-.746,1.545-1.67,2.579-1.737,4.266-.11,2.808.528,4.611-1.542,7.062C288.785,309.616,287.987,307.38,288.367,305.463Z" transform="translate(-288.266 -274.235)" fill="#363e42"/>
        <path id="Path_108" data-name="Path 108" d="M293.835,282.074c1.411-.984,3.04-1.539,4.379-2.5,1.278-.918,1.266-2.738,2.07-3.949,1.281-1.922,1.734-1.074,3.848-.793,1.371.183,3.148-.136,4.577,0a44.511,44.511,0,0,1,7.655,1.606c-3.125,3.653-5.276,8.34-4.855,13.181.308,3.456,3.944,6.56,5.36,9.626.726,1.574,2.376,4.057,2.361,5.764a47.242,47.242,0,0,1-5.282-.772c-1.191-.232-3.54-1.013-4.629-.508-.3.142-.729.427-1.025.6.018.9,1.466,4.054-.4,3.592-1.254-.316-.589-4.022-2.677-2.825.558,2.041.549,5.157-1.042,2.056-.482-.932-.743-3.1-1.632-1.281-.375.77.154,2.48.2,3.316A34.165,34.165,0,0,1,303.13,313c-1.173-1.144-2.364-1.321-3.078-3.006-.624-1.481-.526-3.276-.761-4.838-.328-2.175.224-2.1,2.3-3.165a10.229,10.229,0,0,0,4.222-3.409c2.645-3.938-.529-3.395-1.85-6.119-.546-1.121.441-2.611-.97-3.813-1.016-.868-2.506-.4-3.88-.267-1.556.151-5.361,1.278-6.725.621-.72-.348-1.879-2.921-1.687-3.807.244-1.106,1.577-1.827,2.425-2.573A8.544,8.544,0,0,1,293.835,282.074Z" transform="translate(-283.675 -273.923)" fill="#fafafa"/>
        <path id="Path_109" data-name="Path 109" d="M303.713,275.409c2.094-.369,3.993.1,6.107-.044,5.735-.392,5.436,9.519,10.776,9.342,1.928-.067,2.111-.845,2.95,1.016.775,1.71,1.22,3.8-.279,4.733-1.574.982-3.952-.241-5.5.822-1.063.726-1.2,2.46-1.458,3.778-.116.633-.8.709-.63,1.469.119.534,1.353,1.368,1.748,1.795a7.148,7.148,0,0,1,2.187,3.258c.049.212-2.959,1-3.267,1.231-1.077.813-1.615,2.945-2.375,3.987-.621-4.08-2.094-3.151-4.928-3.374a17.674,17.674,0,0,0,2.419-7.161,6.931,6.931,0,0,0-1.989-5.869c-.494-.439-1.327-.4-1.975-1-.973-.906-.6-1.223-1.153-2.268a8.475,8.475,0,0,1-1.4-4.135c-.212-2.477.441-6.94-3.212-7.457C302.04,275.452,303.4,275.458,303.713,275.409Z" transform="translate(-262.617 -272.276)" fill="#fafafa"/>
      </g>
    </g>
  </g>
</svg>
