<svg xmlns="http://www.w3.org/2000/svg" width="119.535" height="116.507" viewBox="0 0 119.535 116.507">
  <path id="Icon_awesome-arrow-right" data-name="Icon awesome-arrow-right" d="M50.823,10.451l5.923-5.923a6.377,6.377,0,0,1,9.044,0l51.864,51.837a6.377,6.377,0,0,1,0,9.044L65.79,117.273a6.377,6.377,0,0,1-9.044,0l-5.923-5.923a6.41,6.41,0,0,1,.107-9.151L83.078,71.572H6.4a6.388,6.388,0,0,1-6.4-6.4V56.632a6.388,6.388,0,0,1,6.4-6.4H83.078L50.93,19.6A6.364,6.364,0,0,1,50.823,10.451Z" transform="translate(0 -2.647)" fill="#868b8e"/>
</svg>
