<svg xmlns="http://www.w3.org/2000/svg" xmlns:xlink="http://www.w3.org/1999/xlink" width="561.434" height="562.612" viewBox="0 0 561.434 562.612">
  <defs>
    <clipPath id="clip-path">
      <path id="Path_67" data-name="Path 67" d="M793.651,1539.821c-.076-8.167,23.576-15.858,35.7-15.081,19.408,1.241,35.894,6.329,35.971,14.49l.06,7.214c.076,8.167-15.978,13.369-35.7,15.082-18.024,1.564-35.167-8.123-35.97-14.49Z" transform="translate(-793.651 -1524.686)" fill="none"/>
    </clipPath>
    <clipPath id="clip-path-2">
      <path id="Path_83" data-name="Path 83" d="M796.6,1536.457c-.071-8.166,23.581-15.851,35.7-15.08,19.407,1.247,35.9,6.329,35.97,14.5l.066,7.215c.077,8.161-15.978,13.364-35.7,15.081-18.023,1.564-35.167-8.123-35.97-14.495Z" transform="translate(-796.597 -1521.323)" fill="none"/>
    </clipPath>
  </defs>
  <g id="Group_337" data-name="Group 337" transform="translate(-1060.218 -316.666)">
    <g id="Group_323" data-name="Group 323" transform="translate(1103.409 316.666)">
      <g id="Group_157" data-name="Group 157" transform="translate(0 0)">
        <path id="Path_211" data-name="Path 211" d="M1124.724,2334.716c.352,23.348-1.934,46.264-7.253,66.346-7.914,30.077-23.516,49.526-40.835,74.033-19.295,27.335-36.53,56.418-66.14,72.371-20.247,10.923-43,20.814-63.886,29.442-66.037,27.233-140.505,17.33-202.715-15.168-30.292-15.8-61.546-37.418-83.614-63.843-43.287-51.842-57.171-123.777-53.085-189.73,4.159-67.412,27.561-108.538,74.987-155.621,16.584-16.469,23.557-26.639,45.583-34.3,27.871-9.693,53.715-26.888,81.6-33.066a327.016,327.016,0,0,1,96.081-6.96c32.693,2.566,70.579,18.362,98.927,35.506,45.594,27.552,81.659,68.357,101.286,118.045C1117.389,2261.5,1124.206,2298.68,1124.724,2334.716Z" transform="translate(-606.516 -2077.259)" fill="#ebebec"/>
        <g id="Group_136" data-name="Group 136" transform="translate(174.647 53.976)">
          <path id="Path_212" data-name="Path 212" d="M653.45,2110.149c2.7-9.134.89-8.481.765-19.5a7.36,7.36,0,0,1,7.3-7.461c22.389-.133,56.054-1.343,79.374-.278a10.241,10.241,0,0,1,9.715,9.113,51.719,51.719,0,0,0,1.675,9.21c7.4,14.112,39.79,43.525,50.208,57.429,13.791,18.418,5.5,30.666,4.521,54.335-3.631,87.462-.932,156.22-5.856,242.153a3.4,3.4,0,0,1-1.79,2.785c-30.065,15.909-53.746,33.974-78.152,37.3-23.868,3.247-58.381-16.225-87.2-24.511a8.54,8.54,0,0,1-6.177-7.83c-1.634-34.95-2.421-126.241-2.617-141.479-.579-43.794-2.173-125.555-1.749-148.5a5.328,5.328,0,0,1,.786-2.681C635.355,2152.153,653.45,2110.149,653.45,2110.149Z" transform="translate(-623.397 -2082.475)" fill="#868b8d"/>
          <path id="Path_213" data-name="Path 213" d="M712.147,2383.062c-19.513,15.384-30.624,21.2-50.663,28.8-11.546,4.388-28.7,10.617-28.585,9.408,2.3-23.808,5.276-106.885,5.514-123.167.569-37.5,3.207-72.08-.083-140.082-.538-11.174-5.442-47.178-5.483-58.121,35.61-1.927,43.577-4.077,52.174-5.5,9.518-1.585,26.268-1.791,32.827-4.006a36.04,36.04,0,0,1,3.445,9.106A43.515,43.515,0,0,1,721.5,2115c-4.222,25.366-3.57,46.566-4.263,71.281-.724,26.029-1.066,44.289-.776,53.994C716.472,2240.579,716.875,2379.327,712.147,2383.062Z" transform="translate(-535.081 -2008.516)" fill="#d1d1ce"/>
          <path id="Path_214" data-name="Path 214" d="M709.362,2133.918c-11.442-16.853-31.182-35.176-45.014-48.344a.81.81,0,0,0-1.283.218c-10.428,19.043-25.668,37.844-30.437,57.056C665.931,2139.328,681.553,2139.7,709.362,2133.918Z" transform="translate(-537.128 -2055.632)" fill="#cbcdcc"/>
          <path id="Path_215" data-name="Path 215" d="M710.777,2144.62c-5.4-7.945,30.065-57.969,26.754-57.842-30.717,1.189-67.185-1.7-87.38-1.613-11.566,25.252-14.95,29.163-26.009,52.223C656.638,2140.122,678.809,2140.111,710.777,2144.62Z" transform="translate(-616.436 -2057.366)" fill="#d1d1ce"/>
        </g>
      </g>
      <g id="Group_167" data-name="Group 167" transform="translate(192.706 245.465)">
        <path id="Path_232" data-name="Path 232" d="M59.154,35.834A42.454,42.454,0,0,1,58.3,45.1c-.918,4.2-2.71,6.922-4.7,10.355-2.214,3.822-4.2,7.888-7.579,10.13a74.427,74.427,0,0,1-7.31,4.137C31.161,73.55,22.667,72.2,15.576,67.694a32.964,32.964,0,0,1-9.512-8.875C1.146,51.6-.407,41.567.087,32.359c.506-9.416,3.195-15.166,8.63-21.76,1.9-2.307,2.7-3.728,5.22-4.809,3.183-1.365,6.139-3.775,9.327-4.651A30.857,30.857,0,0,1,34.235.122c3.729.349,8.05,2.534,11.279,4.915A32.612,32.612,0,0,1,57.022,21.472,50.458,50.458,0,0,1,59.154,35.834Z" transform="matrix(1, -0.017, 0.017, 1, 0, 1.032)" fill="#ebebec"/>
        <path id="Path_233" data-name="Path 233" d="M1644.336,320.7a52.484,52.484,0,0,0,2.986-8.09c.563-2.815.626-6.566,0-8.1s-5.7-10.231-6.321-14.24.876-14.835,1.376-16.71,3.067-7.333,6.259-9.55,7.509-3.922,11.076-3.58,8.261,3.239,10.952,7.077a24.451,24.451,0,0,1,3.879,11.851c.063,2.644-.187,6.906,0,7.929s2.41,4.5,2.645,4.881a4.265,4.265,0,0,1,.656,2.622c-.234.9-1.314,1.216-1.971,1.47s-1.173.768-1.126,1.216a2.781,2.781,0,0,0,.282,1.087,2.488,2.488,0,0,1,.093,1.79c-.234.7-.469,1.152-.891,1.343a2.619,2.619,0,0,1,.61,1.855c-.188.894-1.126,1.663-1.126,2.3s.375,2.686.281,3.262-.892,2.493-2.253,2.686-4.552-.127-5.538.191-2.676,3.326-3,5.628a34.312,34.312,0,0,0-.141,5.563c0,.449.14,2.229.14,2.229s-3.271,1.593-9.494,0A23.853,23.853,0,0,1,1644.336,320.7Z" transform="translate(-1629.172 -253.388)" fill="#acacac"/>
      </g>
    </g>
    <g id="Group_324" data-name="Group 324" transform="translate(1060.218 605.402)">
      <path id="Path_49" data-name="Path 49" d="M1044.95,1631.99a132.866,132.866,0,0,1-3.851,35.259c-4.207,15.972-12.5,26.31-21.705,39.34-10.25,14.518-19.413,29.964-35.134,38.448a369.406,369.406,0,0,1-33.957,15.638c-35.084,14.469-74.649,9.212-107.715-8.057-16.093-8.4-32.7-19.879-44.427-33.925-22.99-27.546-30.364-65.765-28.2-100.805,2.21-35.834,14.649-57.676,39.849-82.69,8.812-8.751,12.521-14.156,24.227-18.231,14.8-5.147,28.526-14.277,43.355-17.559a173.933,173.933,0,0,1,51.057-3.714c17.356,1.378,37.5,9.764,52.561,18.871,24.216,14.643,43.388,36.321,53.814,62.729C1041.044,1593.093,1044.671,1612.84,1044.95,1631.99Z" transform="translate(-769.6 -1495.188)" fill="#dcdcdc"/>
      <g id="Group_13" data-name="Group 13" transform="translate(49.906 99.354)">
        <path id="Path_50" data-name="Path 50" d="M856.008,1526.993s-22.711,9.462-29.253,12.619c-6.5,3.129-48.032,7.593-48.032,7.593s.427,2.833,1.1,7.739c.717,5.2,1.1,7.691,1.926,12.51,0,0,5.038,19.145,4.616,23.2s5.087,20.036,5.087,20.036c1,3.589,1.28,6.165,3.217,6.088,0,0,51.648-11.613,58.8-15.54,19.659-10.8,45.034-21.83,67.762-16.9.941-2.187.717-4.814-.049-8.527a339.7,339.7,0,0,0-7.549-40.543c-1.543-6.455-2.341-9.54-4-15.541-1-3.626-1.045-5.651-2.636-6.384-7.084,1.166-10.6,1.658-17.723,2.971a94.12,94.12,0,0,0-11.766,3A199.286,199.286,0,0,0,856.008,1526.993Z" transform="translate(-778.723 -1513.35)" fill="#006c3a"/>
      </g>
      <g id="Group_14" data-name="Group 14" transform="translate(56.727 89.766)">
        <path id="Path_51" data-name="Path 51" d="M857.819,1519.792s-23.171,6.952-29.882,9.37c-6.668,2.4-47.966,2.6-47.966,2.6s.175,2.8.432,7.652c.268,5.136.438,7.6.832,12.379,0,0,3.353,19.167,2.593,23.072-.76,3.928,3.321,20.032,3.321,20.032.678,3.6.744,6.137,2.653,6.257,0,0,51.872-6.153,59.251-9.266,20.283-8.555,46.216-16.765,68.189-9.687,1.11-2.034,1.11-4.617.672-8.315a331.076,331.076,0,0,0-4.015-40.259c-.968-6.444-1.5-9.529-2.625-15.541-.678-3.637-.553-5.612-2.057-6.487-7.078.426-10.59.557-17.718,1.126a93.174,93.174,0,0,0-11.843,1.74A198.614,198.614,0,0,0,857.819,1519.792Z" transform="translate(-779.97 -1511.598)" fill="#4bb131"/>
      </g>
      <g id="Group_15" data-name="Group 15" transform="translate(67.849 78)">
        <path id="Path_52" data-name="Path 52" d="M865.813,1514.621s-24.194,1.855-31.272,2.8c-7.034.936-47.983-7.974-47.983-7.974s-.323,2.849-.93,7.761c-.646,5.213-.919,7.724-1.373,12.6,0,0-.082,19.955-1.526,23.707-1.455,3.769-.273,20.818-.273,20.818.033,3.758-.356,6.318,1.521,6.859,0,0,52.479,5.274,60.345,3.781,21.612-4.108,48.765-6.62,69.277,5.328,1.466-1.795,1.92-4.387,2.144-8.183a344.006,344.006,0,0,0,3.173-41.26c.18-6.673.2-9.884.159-16.153-.028-3.8.454-5.754-.886-6.963-7.089-1.132-10.59-1.772-17.756-2.779a92.115,92.115,0,0,0-12.039-.864A192.426,192.426,0,0,0,865.813,1514.621Z" transform="translate(-782.004 -1509.447)" fill="#006c3a"/>
      </g>
      <g id="Group_22" data-name="Group 22" transform="translate(131.545 138.469)">
        <path id="Path_53" data-name="Path 53" d="M793.651,1539.821c-.076-8.167,23.576-15.858,35.7-15.081,19.408,1.241,35.894,6.329,35.971,14.49l.06,7.214c.076,8.167-15.978,13.369-35.7,15.082-18.024,1.564-35.167-8.123-35.97-14.49Z" transform="translate(-793.635 -1501.797)" fill="#aeb1b2"/>
        <path id="Path_54" data-name="Path 54" d="M827.217,1523.865c5.213-.043,12.647,1.745,17.127,2.653,12.521,2.527,20.912,7.516,20.972,14.381.087,9.32-15.89,17.011-35.686,17.17s-35.9-7.264-35.981-16.585S807.427,1524.024,827.217,1523.865Z" transform="translate(-793.648 -1505.469)" fill="#868b8e"/>
        <g id="Group_18" data-name="Group 18" transform="translate(0.016 22.888)">
          <g id="Group_17" data-name="Group 17" clip-path="url(#clip-path)">
            <g id="Group_16" data-name="Group 16" transform="translate(-4.906 11.349)">
              <path id="Path_55" data-name="Path 55" d="M806.084,1551.02l1.118.144v-23.889h-.638Z" transform="translate(-733.171 -1524.464)" fill="#868b8e"/>
              <path id="Path_56" data-name="Path 56" d="M805.395,1551.164h.637v-23.889l-.949.335Z" transform="translate(-737.646 -1524.464)" fill="#868b8e"/>
              <path id="Path_57" data-name="Path 57" d="M804.108,1551.164l.9-.7-.265-23.185h-.637Z" transform="translate(-742.004 -1524.464)" fill="#868b8e"/>
              <path id="Path_58" data-name="Path 58" d="M803.264,1551.164h.637v-23.889l-.867,11.637Z" transform="translate(-746.807 -1524.464)" fill="#868b8e"/>
              <path id="Path_59" data-name="Path 59" d="M802.043,1551.164h.637l.172-11.2-.809-12.684Z" transform="translate(-751.233 -1524.464)" fill="#868b8e"/>
              <rect id="Rectangle_5" data-name="Rectangle 5" width="0.638" height="23.89" transform="translate(45.165 2.81)" fill="#868b8e"/>
              <path id="Path_60" data-name="Path 60" d="M800.316,1551.164h.64v-23.889L799.9,1541.16Z" transform="translate(-760.798 -1524.464)" fill="#868b8e"/>
              <path id="Path_61" data-name="Path 61" d="M798.947,1539.228h.635l.251-9.282-.87.08Z" transform="translate(-765.072 -1512.528)" fill="#868b8e"/>
              <path id="Path_62" data-name="Path 62" d="M798.174,1554.778h.639v-25.33l-.96,2.726Z" transform="translate(-769.961 -1514.755)" fill="#868b8e"/>
              <path id="Path_63" data-name="Path 63" d="M796.945,1540.736h.637l.154-10.406-.867-.722Z" transform="translate(-774.362 -1514.037)" fill="#868b8e"/>
              <path id="Path_64" data-name="Path 64" d="M795.867,1553.48h.646s.284-21.645,0-23.893-.646,0-.646,0Z" transform="translate(-778.839 -1518.586)" fill="#868b8e"/>
              <path id="Path_65" data-name="Path 65" d="M795.008,1551.31h.635v-23.886s-.12-.411-.635,0S795.008,1551.31,795.008,1551.31Z" transform="translate(-783.713 -1524.611)" fill="#868b8e"/>
              <path id="Path_66" data-name="Path 66" d="M793.8,1553.46h.634s.815-17.563,0-23.886-.634,0-.634,0Z" transform="translate(-788.155 -1526.76)" fill="#868b8e"/>
              <rect id="Rectangle_6" data-name="Rectangle 6" width="0.637" height="23.89" transform="translate(0 2.81)" fill="#868b8e"/>
            </g>
          </g>
        </g>
        <path id="Path_68" data-name="Path 68" d="M823.679,1524.3c4.485.028,10.858,1.657,14.7,2.489,10.738,2.33,17.887,6.722,17.849,12.635-.055,8.019-13.9,14.441-30.933,14.336s-30.79-6.69-30.73-14.708S806.646,1524.193,823.679,1524.3Z" transform="translate(-789.563 -1503.543)" fill="#d1d1ce"/>
        <path id="Path_69" data-name="Path 69" d="M796.6,1536.457c-.071-8.166,23.581-15.851,35.7-15.08,19.407,1.247,35.9,6.329,35.97,14.5l.066,7.215c.077,8.161-15.978,13.364-35.7,15.081-18.023,1.564-35.167-8.123-35.97-14.495Z" transform="translate(-780.466 -1516.83)" fill="#aeb1b2"/>
        <path id="Path_70" data-name="Path 70" d="M830.169,1520.5c5.213-.044,12.647,1.745,17.121,2.648,12.526,2.538,20.917,7.516,20.977,14.386.082,9.321-15.891,17.011-35.692,17.176-19.785.164-35.894-7.264-35.981-16.585S810.379,1520.667,830.169,1520.5Z" transform="translate(-780.48 -1520.502)" fill="#868b8e"/>
        <g id="Group_21" data-name="Group 21" transform="translate(16.131 4.493)">
          <g id="Group_20" data-name="Group 20" clip-path="url(#clip-path-2)">
            <g id="Group_19" data-name="Group 19" transform="translate(-4.505 11.353)">
              <path id="Path_71" data-name="Path 71" d="M809.031,1547.659l1.112.144v-23.889h-.631Z" transform="translate(-736.51 -1521.102)" fill="#868b8e"/>
              <path id="Path_72" data-name="Path 72" d="M808.344,1547.8h.638v-23.889l-.946.327Z" transform="translate(-740.961 -1521.102)" fill="#868b8e"/>
              <path id="Path_73" data-name="Path 73" d="M807.066,1547.8l.9-.708-.263-23.182h-.634Z" transform="translate(-745.296 -1521.102)" fill="#868b8e"/>
              <path id="Path_74" data-name="Path 74" d="M806.23,1547.8h.631v-23.889L806,1535.549Z" transform="translate(-750.074 -1521.102)" fill="#868b8e"/>
              <path id="Path_75" data-name="Path 75" d="M805.013,1547.8h.631l.171-11.214-.8-12.676Z" transform="translate(-754.472 -1521.102)" fill="#868b8e"/>
              <rect id="Rectangle_7" data-name="Rectangle 7" width="0.631" height="23.89" transform="translate(44.925 2.811)" fill="#868b8e"/>
              <path id="Path_76" data-name="Path 76" d="M803.3,1547.8h.633v-23.889l-1.045,13.88Z" transform="translate(-763.988 -1521.102)" fill="#868b8e"/>
              <path id="Path_77" data-name="Path 77" d="M801.933,1535.868h.634l.247-9.285-.865.078Z" transform="translate(-768.24 -1509.167)" fill="#868b8e"/>
              <path id="Path_78" data-name="Path 78" d="M801.163,1551.417h.634v-25.333l-.952,2.728Z" transform="translate(-773.101 -1511.396)" fill="#868b8e"/>
              <path id="Path_79" data-name="Path 79" d="M799.94,1537.379h.634l.157-10.409-.865-.725Z" transform="translate(-777.478 -1510.678)" fill="#868b8e"/>
              <path id="Path_80" data-name="Path 80" d="M798.87,1550.118h.635s.3-21.65,0-23.892-.635,0-.635,0Z" transform="translate(-781.932 -1515.224)" fill="#868b8e"/>
              <path id="Path_81" data-name="Path 81" d="M798.014,1547.95h.634v-23.887s-.12-.41-.634,0S798.014,1547.95,798.014,1547.95Z" transform="translate(-786.78 -1521.25)" fill="#868b8e"/>
              <path id="Path_82" data-name="Path 82" d="M796.813,1550.1h.634s.8-17.564,0-23.887-.634,0-.634,0Z" transform="translate(-791.197 -1523.399)" fill="#868b8e"/>
              <rect id="Rectangle_8" data-name="Rectangle 8" width="0.637" height="23.89" transform="translate(0 2.811)" fill="#868b8e"/>
            </g>
          </g>
        </g>
        <path id="Path_84" data-name="Path 84" d="M826.629,1520.935c4.485.022,10.858,1.652,14.7,2.49,10.738,2.329,17.892,6.722,17.854,12.63-.055,8.019-13.9,14.441-30.932,14.336s-30.791-6.684-30.741-14.7S809.6,1520.831,826.629,1520.935Z" transform="translate(-776.398 -1518.571)" fill="#d1d1ce"/>
      </g>
    </g>
  </g>
</svg>
