<svg xmlns="http://www.w3.org/2000/svg" width="50.092" height="49.82" viewBox="0 0 50.092 49.82">
  <g id="Group_92" data-name="Group 92" transform="translate(-769.599 -255.905)">
    <path id="Path_201" data-name="Path 201" d="M819.688,280.791a24.045,24.045,0,0,1-.7,6.413c-.765,2.906-2.273,4.785-3.947,7.156-1.865,2.641-3.531,5.453-6.391,6.994a67.5,67.5,0,0,1-6.177,2.846c-6.383,2.633-13.581,1.674-19.594-1.465a26.815,26.815,0,0,1-8.084-6.171c-4.182-5.012-5.524-11.964-5.129-18.339.4-6.517,2.664-10.492,7.248-15.043,1.6-1.591,2.277-2.575,4.408-3.315,2.692-.936,5.188-2.6,7.885-3.2a31.674,31.674,0,0,1,9.287-.673,23.714,23.714,0,0,1,9.562,3.432,23.448,23.448,0,0,1,9.79,11.411A29.19,29.19,0,0,1,819.688,280.791Z" fill="#006c3a"/>
    <path id="Path_202" data-name="Path 202" d="M780.454,279.158c.516,3.176,2.57,5.812,3.853,8.694,1.079,2.423,1.819,6.057,3.5,8.091,1.254,1.51,3.948.994,5.6.7.094-2.917,3.248-6.557,4.365-9.424a66.606,66.606,0,0,1,6.51-12.543c2.021-3.041,3.59-6.224,5.35-9.4-1.6,1.375-3.166,1.668-4.6,3.224a82.769,82.769,0,0,0-10.037,13.129c-.814,1.339-4.141,7.073-3.848,8.518-.67-3.311-2.984-10.355-6.105-12.115-.621-.352-4.065-.707-4.592-.008A2.015,2.015,0,0,0,780.454,279.158Z" fill="#4bb131"/>
  </g>
</svg>
