<svg id="Group_250" data-name="Group 250" xmlns="http://www.w3.org/2000/svg" width="148.026" height="147.22" viewBox="0 0 148.026 147.22">
  <g id="Group_46" data-name="Group 46" transform="translate(0 0)">
    <path id="Path_120" data-name="Path 120" d="M427.389,1131.6a71.626,71.626,0,0,1-2.067,18.951c-2.267,8.592-6.725,14.143-11.67,21.15-5.507,7.8-10.435,16.11-18.889,20.668a197.738,197.738,0,0,1-18.251,8.4c-18.859,7.78-40.124,4.957-57.9-4.325-8.648-4.51-17.58-10.688-23.879-18.233-12.361-14.811-16.322-35.355-15.164-54.194,1.194-19.259,7.874-31,21.421-44.452,4.74-4.7,6.733-7.607,13.026-9.8,7.954-2.77,15.334-7.677,23.3-9.442a93.59,93.59,0,0,1,27.445-1.99c9.339.738,20.162,5.243,28.26,10.138a69.361,69.361,0,0,1,28.921,33.72A86.328,86.328,0,0,1,427.389,1131.6Z" transform="translate(-279.373 -1058.065)" fill="#5ad0ef"/>
    <path id="Path_121" data-name="Path 121" d="M300.08,1070.877c-2.47,0-3.458,2.679-7.9,9.589-1.332,2.079-1.688.986-1.688,5.714,0,2.514,0,47.889-.494,52.329s.494,4.446,2.464,4.446h78.2c2.955,0,4.652-2.552,4.652-5.713v-52.33c0-2.469-5.925-13.049-7.407-13.543S300.08,1070.877,300.08,1070.877Z" transform="translate(-259.008 -1033.205)" fill="#ffcc32"/>
    <path id="Path_122" data-name="Path 122" d="M369.583,1075.745H290.414l-.5,54.306h77.208s3.949,0,3.949-2.467v-5.431c-5.925,1.976-8.395-.988-7.407-4.448s6.419-3.946,8.392,0v-34.552C372.053,1079.7,371.562,1075.745,369.583,1075.745Z" transform="translate(-258.924 -1023.759)" fill="#f9e8ae"/>
    <path id="Path_123" data-name="Path 123" d="M308.075,1086.113a6.618,6.618,0,0,0,.035,2.779c2.617,11.706,22.2,3.843,15.828-6.622C320,1075.792,309.372,1079.668,308.075,1086.113Z" transform="translate(-223.933 -1017.567)" fill="#ffcc32"/>
    <path id="Path_124" data-name="Path 124" d="M294.515,1078c-.688,4.584,6.11,10.2,10.091,5.484,3.375-4-2.905-11.776-7.9-8.613A4.451,4.451,0,0,0,294.515,1078Z" transform="translate(-250.085 -1026.894)" fill="#ffcc32"/>
    <path id="Path_125" data-name="Path 125" d="M295.139,1087.326c-2.329,2.538-2.976,5.581-.15,8.463,3.055,3.108,9.612,1,10.75-2.679C307.782,1086.535,298.691,1083.459,295.139,1087.326Z" transform="translate(-252.699 -1004.584)" fill="#ffcc32"/>
    <path id="Path_126" data-name="Path 126" d="M306.609,1084c1.7-1.655,1.608-5.04-2.27-4.325-3.237.6-4.384,3.758-.888,5A2.94,2.94,0,0,0,306.609,1084Z" transform="translate(-236.8 -1016.32)" fill="#ffcc32"/>
    <path id="Path_127" data-name="Path 127" d="M308.747,1087.474c-2.5-1.594-6.592-.515-4.616,4.005,1.65,3.763,5.819,4.26,6.339-.347A3.694,3.694,0,0,0,308.747,1087.474Z" transform="translate(-232.346 -1002.347)" fill="#ffcc32"/>
  </g>
</svg>
