<svg xmlns="http://www.w3.org/2000/svg" width="36.378" height="40.253" viewBox="0 0 36.378 40.253">
  <g id="Group_276" data-name="Group 276" transform="translate(-715.255 -129.9)">
    <g id="Group_275" data-name="Group 275" transform="translate(715.255 129.9)">
      <path id="Path_293" data-name="Path 293" d="M735.579,135.264A22.742,22.742,0,0,1,735,140.29a17.161,17.161,0,0,1-2.861,5.612c-1.352,2.069-2.562,4.273-4.632,5.482a47.251,47.251,0,0,1-4.478,2.231c-4.628,2.064-9.842,1.314-14.2-1.149a19.682,19.682,0,0,1-5.855-4.837c-3.034-3.929-4-9.38-3.719-14.377a40.414,40.414,0,0,1,.854-5.47c.2-1.027.073-2.522.681-3.324.933-1.234,3.184-2.25,4.565-2.942a28.462,28.462,0,0,1,23.785.148c2.2,1.076,4.208,2.007,5.081,4.477A27.656,27.656,0,0,1,735.579,135.264Z" transform="translate(-699.203 -114.558)" fill="#4bb131"/>
      <path id="Path_294" data-name="Path 294" d="M729.884,135.924a13.188,13.188,0,0,1-.38,3.47,11.522,11.522,0,0,1-2.137,3.871c-1.01,1.429-1.912,2.95-3.459,3.786a36.532,36.532,0,0,1-3.343,1.54,12.619,12.619,0,0,1-10.6-.8,14.465,14.465,0,0,1-4.372-3.337c-2.263-2.712-2.99-6.474-2.776-9.925.216-3.526,1.44-5.676,3.921-8.139a5.606,5.606,0,0,1,2.385-1.795,40.976,40.976,0,0,1,4.266-1.727,17.008,17.008,0,0,1,5.025-.365,13.343,13.343,0,0,1,10.471,8.031A15.834,15.834,0,0,1,729.884,135.924Z" transform="translate(-698.178 -113.536)" fill="#d7e100"/>
      <path id="Path_295" data-name="Path 295" d="M711.6,135.154a50.356,50.356,0,0,1-6.724,2.2c4.274-2.5,7.461-4.949,12.21-6.127,1.366,1.055.005,2-.683,2.282C715.187,134.006,712.824,134.7,711.6,135.154Z" transform="translate(-697.577 -111.024)" fill="#4bb131"/>
      <path id="Path_296" data-name="Path 296" d="M709.564,116.1a30.255,30.255,0,0,0-5.42.884c-.315.077,1.155,3.406,1.287,3.691a49.428,49.428,0,0,0,4.925-1.364c-.013-.023-.023.019-.01.013C710.242,119.085,709.074,116.119,709.564,116.1Z" transform="translate(-697.8 -115.359)" fill="#4bb131"/>
      <path id="Path_297" data-name="Path 297" d="M722.33,120.851a10.633,10.633,0,0,1,1.45-3.112,21.067,21.067,0,0,0-5.065-2.215,10.462,10.462,0,0,0-1.531,3.556C717.664,119.541,722.369,120.663,722.33,120.851Z" transform="translate(-694.051 -115.523)" fill="#4bb131"/>
    </g>
  </g>
</svg>
