<svg id="Group_247" data-name="Group 247" xmlns="http://www.w3.org/2000/svg" width="148.026" height="147.222" viewBox="0 0 148.026 147.222">
  <g id="Group_32" data-name="Group 32" transform="translate(0 0)">
    <path id="Path_87" data-name="Path 87" d="M1251.189,982.525a71.219,71.219,0,0,1-2.068,18.952c-2.269,8.588-6.722,14.14-11.671,21.145-5.509,7.8-10.437,16.112-18.882,20.67a198.665,198.665,0,0,1-18.255,8.407c-18.865,7.777-40.127,4.949-57.9-4.33-8.647-4.511-17.58-10.688-23.884-18.232-12.359-14.811-16.322-35.355-15.161-54.191,1.19-19.264,7.877-31,21.423-44.449,4.739-4.707,6.73-7.611,13.026-9.8,7.95-2.765,15.331-7.675,23.3-9.443a93.567,93.567,0,0,1,27.448-1.994c9.329.741,20.157,5.249,28.255,10.142a69.389,69.389,0,0,1,28.923,33.72A86.154,86.154,0,0,1,1251.189,982.525Z" transform="translate(-1103.174 -908.987)" fill="#ffcc32"/>
    <g id="Group_31" data-name="Group 31" transform="translate(23.944 32.072)">
      <path id="Path_88" data-name="Path 88" d="M1199.364,941.122a28.748,28.748,0,0,0-9.591-2.406c-3.6-.038-7.226,1.175-10.626,2.234-6.3,1.96-14.809,6.351-21.362,6.322-5.809-.029-11.254-3.6-17.234-3.849-3.622-.152-7.536,1.219-11.111,1.656-3.949.484-8.568,1.368-11.6,4.188,6.185-1.119,10.772-3.123,16.9-.539-2.712,2.805-8.862,3.047-12.525,5-1.537.822-10.7,6.442-9.871,8.842.633,1.852,8-3.592,9.16-4.19,3.418-1.747,6.065-2.98,9.848-2.222-.017,2.84-8.27,7.681-6.675,10.469,1.009,1.773,2.852.178,3.987-.414,4.876-2.56,8.947-7.089,14.161-8.944,3.706-1.321,7.416-.4,11.219-.154,7.332.478,16.445,1.706,22.5,6.191,2.044,1.519,5.183,8.072,8.11,5.631-1.231-3.4-4.591-5.509-6.037-8.708,4.829-.111,8.856,3.193,12.878,5.652,1.286.79,5.85,5.515,6.806,2.808.8-2.269-5.109-7.474-6.532-8.509-2.843-2.071-6.769-2.613-9.352-5.01,6.622-3.449,15.161-.86,21.3,2.377,2.694,1.42,7.611,2.531,4-1.764-2.344-2.791-6.934-4.669-10.148-6.039-1.572-.671-3.173-1.7-4.8-2.225-1.98-.639-5.068.056-6.349-1.592,4.01-2.669,13.841.14,15.958-2.727A8.4,8.4,0,0,0,1199.364,941.122Z" transform="translate(-1109.646 -884.092)" fill="#006c3a"/>
      <path id="Path_89" data-name="Path 89" d="M1135.648,934.818c4.2-.5,6.454-8.241,9.586-10.845,4.666-3.879,11.607-4.4,17.366-3.756,4.8.531,8.926.452,11.42,5.275,2.12,4.1,6.973,5.354,9.428,8.947,4.377-1.86,10.064-3.808,14.881-3.14a17.575,17.575,0,0,1,12.024,8.267c-1.059,1.094-1.23,3.138-2.374,4.109-1.566,1.321-5.287,1.966-7.486,2.368-5.38.989-10.154-4.135-15-3,.223,6.5-2.4,12.513-4.75,18.425-1.966,4.937-6.136,9.8-5.856,15.339.318,6.224,4.01,12.091-.472,17.824-2.881,3.671-9.741,4.01-14.074,4.1-5.5.108-16.24-.933-17-8.145-.823-7.807,4.059-14.951.009-22.781-1.968-3.8-4.616-7.162-6.418-11.236a26.382,26.382,0,0,1-2.17-7.67c-.169-1.857.951-3.954-.609-5.538-3.957,4.424-14.038,5.532-18.515,1.983-1.443-1.146-4.581-4.348-4.228-6.314.5-2.761,6.74-4.5,9.087-5.2a21.72,21.72,0,0,1,8.121-1.117C1130.624,932.937,1133.66,935.057,1135.648,934.818Z" transform="translate(-1111.384 -919.984)" fill="#363e42"/>
      <path id="Path_90" data-name="Path 90" d="M1136.578,950.61c-2.3-9.268,15.243-14.642,9.818-23.131-3.8-5.932-13.787-6.29-18.841-2.292-6.2,4.9-2.464,7.708.609,13.884,1.828,3.663-.157,7.57,2.2,11.2,2.861,4.4,3.715,6.421,4.182,11.813.525-2.181,2.106-3.625,2.732-5.588C1138.077,954,1137.2,953.132,1136.578,950.61Z" transform="translate(-1086.821 -915.083)" fill="#fafafa"/>
      <path id="Path_91" data-name="Path 91" d="M1134.923,959.8c2.379-.543,4.415-1.852,5.007-3.989.706-2.534-1.379-3.158-2.723-4.7a10.065,10.065,0,0,1-2.762-6.162c-.04-.28-.9-6.232-1.464-5.678-3.724,3.6-1.977,9.793-4.984,13.741-1.2,1.578-3.753,2.963-2.021,4.864C1127.758,959.837,1131.665,960.531,1134.923,959.8Z" transform="translate(-1084.544 -883.096)" fill="#fafafa"/>
    </g>
  </g>
</svg>
