<svg xmlns="http://www.w3.org/2000/svg" width="262.389" height="231.331" viewBox="0 0 262.389 231.331">
  <g id="Group_318" data-name="Group 318" transform="translate(-19144.885 -1655.911)">
    <path id="Path_106" data-name="Path 106" d="M410.015,303.107a12.041,12.041,0,0,0,1.633.742c10.308,3.783,7.274,1.738,17.439-4.922,30.832-20.2,64.849-51.1,98.281-14.892,39.612,42.9,19.356,92.3-20.525,124.94-21.214,17.371-35.6,36.144-51.71,57.829-8.6,11.6-21.222,23.716-33.642,31.312-11.326,6.914-59.1-56.309-67.291-65.343-21.3-23.5-42.661-43.477-58.511-71.718-7.753-13.806-11.424-33.4-7.985-48.983,9.858-44.691,67.538-51.05,99.644-29.619C394.269,287.076,402.673,299.167,410.015,303.107Z" transform="translate(18858.475 1388.598)" fill="#4bb131"/>
    <g id="Group_36" data-name="Group 36" transform="translate(19162.793 1707.767)">
      <path id="Path_107" data-name="Path 107" d="M288.527,354.791c.756-3.835,3.386-7.611,4.876-11.154,5.011-11.888,2.539-20.652,2.1-33.132-.322-9.161,2.232-23.349,8.929-30.008,6.42-6.39,17.364-6.682,25.814-6.015,3.5.269,6.51,2.1,9.9,2.562,3.528.472,7.551-.337,11.229.023,8.539.839,16.862,3.094,25.334,4.457,11.319,1.835,23.027,1.7,34.54.569,10.974-1.086,22.608-2.195,33.559-2.135,8.322.053,20.076.989,27.552,4.727,5.289,2.629,6.817,8.442,9.259,13.364,2.03,4.083,4.577,8.562,7.176,13.266,5.446,7.581,9.409,16.165,15.1,23.626-5.678-7.438,21.709-9.8,21.679-9.438-.674,8.727-9.356,10.929-16,14.09,3.064,3.566,8.158,3.543,10.929,7.551,3.408,4.914,1.079,8.135-.083,13.364-1.273,5.693-.517,11.484-1.356,17.184A77.868,77.868,0,0,0,517.891,393a12.445,12.445,0,0,1-6.382,4.33c-2.457-1.483-5.745-1.656-8.09-3.274a22.891,22.891,0,0,1-5.633-6.592c-2.794-4.435-5.3-9.708-7.911-12.945-2.269-2.809-3.109-6.524-5.618-9.154a21.822,21.822,0,0,0-6.876-4.457c-8.532-2.8-28.091-9.221-34.361-.06-1.423,2.068-.419,6.195-.734,8.585-.667,5.086-3.109,10.067-3.281,15.236-.292,9.214,5.438,11.364,7.85,18.937a11.027,11.027,0,0,1-8.892.517c-3.348-1.229-1.948-.412-3.67-3.671-1.775-3.341-2.33-7.041-3.678-10.345-1.3,2.1-1.109,14.12,2.562,13.955-3.6.158-8.367-.854-11.394,1.041-1.453-2.712-.884-8.862-4.667-8.817,3.626-10.652,3.6-20.457,3.476-31.6-.015-2.352.24-4.63-.547-6.847-1.386-3.918-.344-2.674-4.817-3.153-8.5-.906-16.8,1.348-25.267.539-7.9-.749-16.023-1.9-23.731-3.416-7.993-1.566-17.169-3.236-25.14-.966-2.39.674-6.652,3.326-7.079,6.068s3.274,5.139,3.446,8.292c.4,7.768.367,16.375,4.877,23.169,3.625,5.461,9.873,9.146,11.925,15.686-5.318-.345-13.019,2.981-16.27-1.5-1.2-1.663-.112-4.292-2.075-5.94-2.4-2.015-5.2,0-6.772-3.641-.644-1.483.1-5.446-.1-7.274a19.839,19.839,0,0,0-2.083-7.333c-2.959-5.745-5.918-9.686-8.008-15.626-3.236,4.1-6.517,16.308-6.233,21.4.412,7.3,7.813,13.349,7.349,20.428-4.165,1.049-8.068.21-12.015.509,3.094-6.457-6.937-10.674-6.232-17.259.345-3.251,2.487-5.723,2.54-9.453a51.608,51.608,0,0,0-1.723-14.765c-1.378-4.742-2.839-5.476.15-9.888,10.78-15.956.51-27.791-2.255-44.758-1.655,4.1.442,12.682.674,17.319.27,5.505-.15,9.91-2.532,14.854-1.925,3.985-4.307,6.652-4.479,11-.285,7.244,1.363,11.9-3.978,18.218C289.606,365.5,287.546,359.735,288.527,354.791Z" transform="translate(-288.266 -274.235)" fill="#363e42"/>
      <path id="Path_108" data-name="Path 108" d="M298.823,294.2c3.64-2.539,7.843-3.97,11.3-6.457,3.3-2.367,3.266-7.064,5.341-10.187,3.3-4.959,4.472-2.772,9.925-2.045,3.536.472,8.12-.352,11.806,0,6.914.682,12.742,2.232,19.746,4.142-8.06,9.424-13.611,21.514-12.525,34,.794,8.914,10.173,16.922,13.828,24.832,1.873,4.06,6.128,10.465,6.09,14.869a121.911,121.911,0,0,1-13.626-1.992c-3.071-.6-9.132-2.614-11.941-1.311-.786.367-1.88,1.1-2.644,1.558.045,2.322,3.783,10.457-1.026,9.266-3.236-.816-1.521-10.375-6.907-7.289,1.438,5.266,1.416,13.3-2.689,5.3-1.244-2.4-1.918-8-4.21-3.3-.966,1.985.4,6.4.517,8.555.172,3.468,1.191,6.322,1,9.843-3.026-2.951-6.1-3.408-7.94-7.753-1.611-3.82-1.356-8.45-1.963-12.48-.847-5.611.577-5.416,5.925-8.165,4.375-2.24,8.015-4.525,10.892-8.794,6.824-10.158-1.364-8.757-4.772-15.783-1.408-2.891,1.138-6.734-2.5-9.835-2.622-2.24-6.465-1.026-10.008-.689-4.015.39-13.828,3.3-17.349,1.6-1.858-.9-4.847-7.536-4.352-9.821.629-2.854,4.068-4.712,6.255-6.637A22.043,22.043,0,0,1,298.823,294.2Z" transform="translate(-272.613 -273.173)" fill="#fafafa"/>
      <path id="Path_109" data-name="Path 109" d="M306.832,275.637c5.4-.951,10.3.262,15.753-.112,14.795-1.011,14.023,24.555,27.8,24.1,4.974-.172,5.446-2.18,7.61,2.622,2,4.412,3.146,9.806-.719,12.21-4.06,2.532-10.2-.622-14.188,2.12-2.742,1.873-3.1,6.345-3.76,9.745-.3,1.633-2.067,1.828-1.625,3.791.307,1.378,3.491,3.528,4.509,4.63,2.472,2.637,4.824,4.847,5.641,8.4.127.547-7.633,2.584-8.427,3.176-2.779,2.1-4.165,7.6-6.128,10.285-1.6-10.525-5.4-8.128-12.712-8.7,3.73-6.232,5.131-11.214,6.24-18.473.786-5.191-1.176-11.626-5.131-15.139-1.274-1.131-3.423-1.026-5.094-2.584-2.51-2.337-1.536-3.154-2.974-5.85-2.307-4.307-3.2-5.851-3.6-10.667-.547-6.39,1.139-17.9-8.285-19.237C302.517,275.75,306.038,275.764,306.832,275.637Z" transform="translate(-200.822 -267.556)" fill="#fafafa"/>
    </g>
  </g>
</svg>
