<svg id="Group_138" data-name="Group 138" xmlns="http://www.w3.org/2000/svg" width="186.369" height="185.365" viewBox="0 0 186.369 185.365">
  <g id="Group_117" data-name="Group 117" transform="translate(0 0)">
    <g id="Group_116" data-name="Group 116">
      <g id="Group_115" data-name="Group 115">
        <g id="Group_114" data-name="Group 114">
          <path id="Path_207" data-name="Path 207" d="M1477.877,853.225a89.622,89.622,0,0,1-2.6,23.86c-2.857,10.812-8.464,17.8-14.693,26.625-6.931,9.826-13.137,20.289-23.778,26.026a249.819,249.819,0,0,1-22.986,10.585c-23.745,9.8-50.518,6.232-72.895-5.454-10.886-5.682-22.138-13.45-30.07-22.956-15.559-18.645-20.553-44.518-19.09-68.229,1.5-24.251,9.919-39.041,26.967-55.969,5.971-5.923,8.479-9.581,16.4-12.338,10.02-3.483,19.3-9.666,29.341-11.887a117.6,117.6,0,0,1,34.554-2.508c11.75.93,25.382,6.6,35.577,12.769a87.321,87.321,0,0,1,36.421,42.452C1475.239,826.894,1477.687,840.263,1477.877,853.225Z" transform="translate(-1291.521 -760.634)" fill="#ebebec"/>
        </g>
      </g>
    </g>
  </g>
  <g id="Group_121" data-name="Group 121" transform="translate(43.917 85.905)">
    <g id="Group_118" data-name="Group 118" transform="translate(31.86 20.995)">
      <path id="Path_208" data-name="Path 208" d="M1312.867,777.7s-.031.635-.039.455l.989,8.263a11.313,11.313,0,0,1-.02,2.395l-1.055,7.81c-.075.6-.161,1.622-.161,2.218l-.036,7.808c0,.631-.016,1.662-.039,2.3l-.224,7.8c-.019.622-.533.821.016,2.254s23.649,1.105,23.72-.011.129-1.686.208-2.325l1.087-7.8a7.739,7.739,0,0,0-.063-2.109l-1.687-7.81a10.875,10.875,0,0,1-.2-2.41l.36-7.8c.008-.628.1-1.663.146-2.3l.389-8.658c0-.019,0-.045-.047-.079a.49.49,0,0,0-.133-.021s-21.334-1.092-23.088-.126" transform="translate(-1312.046 -777.151)" fill="#f8353c"/>
    </g>
    <g id="Group_119" data-name="Group 119" transform="translate(66.411 0)">
      <path id="Path_209" data-name="Path 209" d="M1346.136,832.67a9.528,9.528,0,0,0-.067-2.492l.589-7.881c.036-.686.075-1.8.039-2.492l-.145-7.877c-.016-.688-.008-1.814.027-2.5l.287-7.877a13.573,13.573,0,0,0-.161-2.49l-1.275-7.881a11.727,11.727,0,0,1-.051-2.49l.953-7.881c.091-.686.153-1.814.169-2.492l.09-8.413c.011-.684-1.056-1.237-2.37-1.237l-20.36.117c-1.3,0-2.3.569-2.214,1.253l1.063,8.28c.094.678.173,1.806.2,2.484l.177,7.877a12.373,12.373,0,0,1-.224,2.49l-1.617,7.893a12.3,12.3,0,0,0-.177,2.48l.5,7.887c.063.684.1,1.806.11,2.482l.058,7.887c.008.688-.031,1.81-.07,2.494l-.538,7.885c-.063.68-.655,1.685.091,2.482S1345.877,833.673,1346.136,832.67Z" transform="translate(-1320.851 -768.665)" fill="#4bb131"/>
    </g>
    <g id="Group_120" data-name="Group 120" transform="translate(0 31.057)">
      <path id="Path_210" data-name="Path 210" d="M1327.174,815.215c-.172-1.189-.278-1.658-.318-2.281l-.53-8.271a18.388,18.388,0,0,1,.016-2.283l.777-8.28a16.973,16.973,0,0,0,.031-2.277l-.514-7.909c-.031-.632-1.13-1.176-2.433-1.214l-17.908-.525c-1.311-.038-2.382.455-2.37,1.078l.054,8.564c0,.616.055,1.651.095,2.277l.533,8.278c.032.627.063,1.654.071,2.281v8.276a13.586,13.586,0,0,1,.106,2.284C1304.679,816.592,1327.363,816.406,1327.174,815.215Z" transform="translate(-1303.926 -782.174)" fill="#ff9837"/>
    </g>
  </g>
</svg>
