<svg xmlns="http://www.w3.org/2000/svg" viewBox="0 0 50.91 50.64"><defs><style>.cls-1{fill:#5ad0ef;}.cls-2{fill:#ffe90a;}.cls-3{fill:#ffcc32;}.cls-4{fill:#fafafa;}</style></defs><title>Aktiv 1</title><g id="Lag_2" data-name="Lag 2"><g id="Layer_1" data-name="Layer 1"><path class="cls-1" d="M50.91,25.3a24.67,24.67,0,0,1-.71,6.51c-.78,3-2.31,4.87-4,7.28-1.9,2.68-3.59,5.54-6.5,7.11-2,1.07-4.23,2-6.28,2.89-6.48,2.68-13.8,1.7-19.92-1.49a27.2,27.2,0,0,1-8.21-6.27C1,36.24-.33,29.17.07,22.69.47,16.06,2.78,12,7.43,7.4,9.06,5.78,9.75,4.78,11.91,4c2.74-1,5.28-2.64,8-3.25A32.2,32.2,0,0,1,29.37.09a24.32,24.32,0,0,1,9.72,3.49A23.88,23.88,0,0,1,49,15.18,29.71,29.71,0,0,1,50.91,25.3Z"/><path class="cls-2" d="M11.39,19.74v0c-.5,6.22,7.42,9.71,11.93,5.38,2.73-2.63,2.09-8.92-1.38-10.89A6.92,6.92,0,0,0,11.39,19.74Z"/><path class="cls-3" d="M12.81,19.83h0c-.4,4.92,5.87,7.68,9.43,4.26,2.17-2.08,1.66-7-1.09-8.62A5.48,5.48,0,0,0,12.81,19.83Z"/><path class="cls-4" d="M42.37,31.56A3.68,3.68,0,0,1,41,34c-1.72,1.09-5.65.1-7.55.16-7.16.24-14.32.06-21.48.26-1.65,0-2,.41-2.92-1.2a6,6,0,0,1-.18-5.38c1.05-2,5.48-3.73,7.33-1.93.07.07.06.07,0,0-.53-2.5,2.74-3.38,4.52-2.14-1.44-1,1.47-5.23,2.25-5.89a9.14,9.14,0,0,1,6.2-1.9,8.33,8.33,0,0,1,8.08,10.3c2.17,0,4.39.48,5.12,2.88A5.15,5.15,0,0,1,42.37,31.56Z"/></g></g></svg>