<svg id="Group_249" data-name="Group 249" xmlns="http://www.w3.org/2000/svg" width="148.025" height="147.225" viewBox="0 0 148.025 147.225">
  <g id="Group_33" data-name="Group 33" transform="translate(0 0)">
    <path id="Path_92" data-name="Path 92" d="M1165.538,1131.6a71.574,71.574,0,0,1-2.07,18.956c-2.268,8.588-6.724,14.141-11.67,21.145-5.509,7.805-10.437,16.109-18.886,20.674a198.531,198.531,0,0,1-18.258,8.4c-18.856,7.78-40.12,4.951-57.9-4.329-8.64-4.509-17.578-10.687-23.88-18.231-12.356-14.813-16.321-35.359-15.161-54.2,1.192-19.258,7.876-31,21.424-44.45,4.742-4.7,6.727-7.611,13.019-9.8,7.957-2.764,15.336-7.678,23.308-9.443a93.39,93.39,0,0,1,27.442-1.995c9.329.739,20.159,5.248,28.256,10.144a69.3,69.3,0,0,1,28.924,33.721A86.187,86.187,0,0,1,1165.538,1131.6Z" transform="translate(-1017.522 -1058.056)" fill="#006c3a"/>
    <path id="Path_93" data-name="Path 93" d="M1044.125,1100.451c-.119-.151-.238-.326-.358-.509-2.09-3.2-1.067-13.149-1.023-16.88s-1.169-13.115,1.959-15.8c4.617-3.957,17.336-.253,15.978,5.98-1.462,6.742-4.724,11.184-7.693,17.185C1052.053,1092.328,1048.85,1106.771,1044.125,1100.451Z" transform="translate(-969.966 -1043.622)" fill="#ff9837"/>
    <path id="Path_94" data-name="Path 94" d="M1049.669,1081.286a60.183,60.183,0,0,1,7.256,2.227c4.57,1.309,21.72,3.451,21.918,10.2.058,1.861-5.154,12.054-7.654,10.609-4.8-2.774-9.074-4.623-13.441-8.277-3.229-2.707-6.291-5.606-9.556-8.263C1044.694,1084.94,1043.395,1080.187,1049.669,1081.286Z" transform="translate(-964.607 -1014.057)" fill="#ff9837"/>
    <path id="Path_95" data-name="Path 95" d="M1062.747,1086.293c-4.042,3.733-11.923,7.329-14.133,9.178-3.762,3.149-6.556,6.48-11.239,8.673-2.306-1.765-9.364-9.207-9-12.365.311-2.727,3.067-2.724,5.291-3.445,2.186-.712,31.23-12.054,31.506-6.2C1065.229,1083.484,1064.259,1084.9,1062.747,1086.293Z" transform="translate(-996.85 -1015.32)" fill="#ff9837"/>
    <path id="Path_96" data-name="Path 96" d="M1050.884,1083.322a4.56,4.56,0,1,1-4.559-4.559A4.558,4.558,0,0,1,1050.884,1083.322Z" transform="translate(-971.285 -1018.562)" fill="#ff9837"/>
    <path id="Path_97" data-name="Path 97" d="M1041.4,1117.07c.163-3.085.771-6.358.794-8.443.081-7.23.66-14.464.666-21.714.006-5.03,7.864-5.66,7.864,0,.006,12.149,2.4,24.517,1.747,36.591-2.021-1.233-7.506-.733-9.766.41C1041.453,1122.408,1041.256,1119.812,1041.4,1117.07Z" transform="translate(-972.053 -1010.669)" fill="#ff9837"/>
    <path id="Path_98" data-name="Path 98" d="M1032.2,1098.328c5.969,2.274,10.807-1.713,16.6-2.477,4.573-.6,6.413,2.407,10.594,3.562,7.87,2.178,13.417-7,20.971-4.948,2.872.776,5.07,3.634,8.146,3.977,3.788.427,5.646-2.495,8.99-3.968,5.719-2.518,6.029,3.451,10.614,4.989,3.655,1.227,14.426-1.369,15.978-5.588-1.727,4.693-5.026,12.255-9.6,14.694-4.445,2.363-8.785-.773-12.7-1.87-4.431-1.241-5.582,2.1-9.853,2.172-3.288.057-5.736-2.978-8.948-3.466-5.757-.87-9.181,3.149-14.191,4.314-5.047,1.172-8.818-2.157-13.626-3.372-6.056-1.532-11.4,2.081-17.357,1.846-6.6-.259-10.1-7.082-12.056-12.545C1028.218,1096.328,1030.106,1097.532,1032.2,1098.328Z" transform="translate(-1001.8 -989.765)" fill="#4bb131"/>
  </g>
</svg>
