<svg xmlns="http://www.w3.org/2000/svg" viewBox="0 0 50.15 49.88"><defs><style>.cls-1{fill:#8cb645;}.cls-2{fill:#ffed00;}</style></defs><title>Aktiv 1</title><g id="Lag_2" data-name="Lag 2"><g id="Layer_1" data-name="Layer 1"><path class="cls-1" d="M50.15,24.91a24.41,24.41,0,0,1-.7,6.42c-.77,2.91-2.28,4.8-4,7.17-1.87,2.64-3.53,5.46-6.4,7a66,66,0,0,1-6.18,2.85C26.52,51,19.32,50,13.29,46.88A26.86,26.86,0,0,1,5.2,40.7C1,35.69-.33,28.73.07,22.35c.4-6.53,2.66-10.51,7.25-15.06C8.93,5.69,9.6,4.71,11.73,4c2.7-.94,5.2-2.6,7.9-3.2a31.93,31.93,0,0,1,9.3-.68A23.74,23.74,0,0,1,38.5,3.53,23.5,23.5,0,0,1,48.3,15,29.4,29.4,0,0,1,50.15,24.91Z"/><path class="cls-2" d="M17.59,22.69c-2.92,5.14-5,10.87-.53,15.1,4.9,4.63,12,4.17,15.59.18,2.65-3,3-5.61,2.59-9.09C34.71,24.57,30.72,19.6,28.4,16c-2.17-3.34-2.07-6.39-2.91-8.65-.42-1.12-.55-1.1-.83-.53-.49,3.21-2.3,6.87-3.68,9.41C20,18.08,19,20.21,17.59,22.69Z"/></g></g></svg>