<svg xmlns="http://www.w3.org/2000/svg" width="211" height="209.857" viewBox="0 0 211 209.857">
  <g id="Group_182" data-name="Group 182" transform="translate(0 0)">
    <path id="Path_241" data-name="Path 241" d="M980.584,211.245a101.307,101.307,0,0,1-2.953,27.017c-3.222,12.241-9.574,20.156-16.626,30.143-7.856,11.12-14.874,22.965-26.92,29.46a285.383,285.383,0,0,1-26.019,11.984c-26.887,11.091-57.206,7.056-82.534-6.175-12.333-6.432-25.059-15.227-34.052-25.989-17.615-21.107-23.268-50.4-21.6-77.248,1.693-27.451,11.221-44.195,30.531-63.365,6.752-6.7,9.591-10.842,18.567-13.964,11.339-3.943,21.853-10.943,33.214-13.462a133.414,133.414,0,0,1,39.119-2.835c13.311,1.053,28.744,7.477,40.277,14.456,18.563,11.221,33.256,27.83,41.238,48.066C977.6,181.435,980.374,196.569,980.584,211.245Z" transform="translate(-769.599 -106.42)" fill="#ebebec"/>
    <path id="Path_242" data-name="Path 242" d="M780.706,174.281c2.173,13.378,10.825,24.482,16.23,36.621,4.545,10.21,7.662,25.513,14.751,34.077,5.282,6.365,16.63,4.191,23.588,2.94.4-12.287,13.681-27.611,18.386-39.7a280.778,280.778,0,0,1,27.422-52.83c8.513-12.809,15.122-26.217,22.535-39.608-6.74,5.792-13.336,7.026-19.393,13.58a348.49,348.49,0,0,0-42.278,55.307c-3.428,5.636-17.443,29.785-16.208,35.88-2.822-13.947-12.569-43.622-25.716-51.035-2.616-1.479-17.123-2.978-19.343-.034C780.247,170.048,780.293,171.745,780.706,174.281Z" transform="translate(-734.983 -76.335)" fill="#006c3a"/>
  </g>
</svg>
