<svg xmlns="http://www.w3.org/2000/svg" width="44.228" height="35.935" viewBox="0 0 44.228 35.935">
  <path id="Icon_awesome-list-ul" data-name="Icon awesome-list-ul" d="M4.146,3.375A4.146,4.146,0,1,0,8.293,7.521,4.146,4.146,0,0,0,4.146,3.375Zm0,13.821a4.146,4.146,0,1,0,4.146,4.146A4.146,4.146,0,0,0,4.146,17.2Zm0,13.821a4.146,4.146,0,1,0,4.146,4.146,4.146,4.146,0,0,0-4.146-4.146Zm38.7,1.382H15.2a1.382,1.382,0,0,0-1.382,1.382v2.764A1.382,1.382,0,0,0,15.2,37.928H42.846a1.382,1.382,0,0,0,1.382-1.382V33.782A1.382,1.382,0,0,0,42.846,32.4Zm0-27.643H15.2a1.382,1.382,0,0,0-1.382,1.382V8.9A1.382,1.382,0,0,0,15.2,10.286H42.846A1.382,1.382,0,0,0,44.228,8.9V6.139A1.382,1.382,0,0,0,42.846,4.757Zm0,13.821H15.2a1.382,1.382,0,0,0-1.382,1.382v2.764A1.382,1.382,0,0,0,15.2,24.107H42.846a1.382,1.382,0,0,0,1.382-1.382V19.961A1.382,1.382,0,0,0,42.846,18.578Z" transform="translate(0 -3.375)" fill="#006c3a"/>
</svg>
