<svg id="Group_273" data-name="Group 273" xmlns="http://www.w3.org/2000/svg" width="29.24" height="41.692" viewBox="0 0 29.24 41.692">
  <path id="Path_285" data-name="Path 285" d="M472.181,1579.445c-7.08,0-14.856,3.167-15.385,10.558s6.593,11.985,6.946,15.153-.353,5.763,1.431,5.763c4.384,0,8.936.328,11.7.328,2.993,0,1.4-3.2,1.4-5.836s7.733-5.572,7.733-11.559S479.267,1579.445,472.181,1579.445Z" transform="translate(-456.768 -1579.445)" fill="#d7e100"/>
  <path id="Path_286" data-name="Path 286" d="M465.646,1609.718c-.216.121-.082.182.042.52s-.531,1.3,3.025,1.3c2.305,0,2.51-.436,2.448-.85a2.014,2.014,0,0,1,.22-.975Z" transform="translate(-453.987 -1569.841)" fill="#006c3a"/>
  <path id="Path_287" data-name="Path 287" d="M475.479,1604.287l-12.373-.158c.032.207.07.581.134.972l12.1.1C475.4,1604.905,475.445,1604.6,475.479,1604.287Z" transform="translate(-454.756 -1571.611)" fill="#006c3a"/>
  <path id="Path_288" data-name="Path 288" d="M463.628,1606.529h10.929c.1-.292.2-.6.3-.917H463.42C463.482,1605.912,463.552,1606.224,463.628,1606.529Z" transform="translate(-454.657 -1571.14)" fill="#006c3a"/>
  <path id="Path_289" data-name="Path 289" d="M463.926,1607.975h10.066c.12-.282.244-.59.365-.918H463.649C463.733,1607.375,463.827,1607.684,463.926,1607.975Z" transform="translate(-454.584 -1570.682)" fill="#006c3a"/>
  <path id="Path_290" data-name="Path 290" d="M464.4,1609.327H473.3c.126-.249.275-.559.437-.92h-9.776A5.214,5.214,0,0,0,464.4,1609.327Z" transform="translate(-454.486 -1570.253)" fill="#006c3a"/>
  <path id="Path_291" data-name="Path 291" d="M471.571,1581.983s10.53,8.423,5.516,15.142c0,0,.2-5.715-2.308-8.624C474.779,1588.5,473.177,1583.888,471.571,1581.983Z" transform="translate(-452.07 -1578.64)" fill="#eaecb2"/>
</svg>
