<svg xmlns="http://www.w3.org/2000/svg" width="186.369" height="185.36" viewBox="0 0 186.369 185.36">
  <g id="Group_272" data-name="Group 272" transform="translate(-608 -312.862)">
    <path id="Path_211" data-name="Path 211" d="M792.872,2169.844a89.447,89.447,0,0,1-2.608,23.859c-2.846,10.816-8.457,17.811-14.685,26.624-6.939,9.83-13.137,20.289-23.785,26.026a252.215,252.215,0,0,1-22.974,10.588c-23.748,9.793-50.528,6.232-72.9-5.455-10.893-5.684-22.133-13.456-30.069-22.959-15.567-18.643-20.56-44.512-19.09-68.23,1.5-24.242,9.911-39.032,26.966-55.964,5.964-5.923,8.471-9.58,16.393-12.333,10.023-3.486,19.317-9.669,29.344-11.891a117.6,117.6,0,0,1,34.552-2.5c11.757.922,25.381,6.6,35.576,12.768a87.291,87.291,0,0,1,36.424,42.451C790.234,2143.513,792.686,2156.885,792.872,2169.844Z" transform="translate(1.484 -1764.396)" fill="#ebebec"/>
    <g id="Group_136" data-name="Group 136" transform="translate(670.806 332.273)">
      <path id="Path_212" data-name="Path 212" d="M634.2,2092.428c.971-3.285.32-3.05.275-7.013a2.647,2.647,0,0,1,2.627-2.683c8.051-.048,20.158-.483,28.544-.1a3.682,3.682,0,0,1,3.493,3.277,18.6,18.6,0,0,0,.6,3.312c2.66,5.075,14.309,15.652,18.056,20.652,4.959,6.624,1.979,11.028,1.626,19.54-1.306,31.453-.335,56.18-2.106,87.083a1.224,1.224,0,0,1-.644,1c-10.812,5.721-19.328,12.218-28.1,13.412-8.583,1.167-20.995-5.835-31.36-8.815a3.071,3.071,0,0,1-2.221-2.816c-.588-12.569-.87-45.4-.941-50.879-.208-15.749-.782-45.151-.629-53.4a1.914,1.914,0,0,1,.283-.964C627.7,2107.533,634.2,2092.428,634.2,2092.428Z" transform="translate(-623.397 -2082.476)" fill="#868b8d"/>
      <path id="Path_213" data-name="Path 213" d="M661.365,2195.64A58.317,58.317,0,0,1,643.145,2206c-4.152,1.578-10.321,3.818-10.28,3.383.826-8.562,1.9-38.437,1.983-44.293.2-13.487,1.153-25.921-.03-50.375-.193-4.018-1.957-16.967-1.972-20.9,12.806-.693,15.671-1.466,18.763-1.979,3.423-.57,9.446-.644,11.805-1.441a12.97,12.97,0,0,1,1.239,3.275,15.648,15.648,0,0,1,.075,5.577c-1.518,9.122-1.284,16.746-1.533,25.634-.26,9.361-.383,15.927-.279,19.417C662.92,2144.4,663.065,2194.3,661.365,2195.64Z" transform="translate(-597.689 -2060.946)" fill="#d1d1ce"/>
      <path id="Path_214" data-name="Path 214" d="M660.223,2102.814c-4.115-6.061-11.214-12.65-16.188-17.385a.291.291,0,0,0-.461.078c-3.75,6.848-9.231,13.609-10.946,20.519C644.6,2104.76,650.222,2104.9,660.223,2102.814Z" transform="translate(-598.284 -2074.661)" fill="#cbcdcc"/>
      <path id="Path_215" data-name="Path 215" d="M655.3,2106.545c-1.942-2.857,10.812-20.846,9.621-20.8-11.046.428-24.161-.611-31.423-.58-4.159,9.081-5.376,10.487-9.353,18.78C635.828,2104.927,643.8,2104.923,655.3,2106.545Z" transform="translate(-621.371 -2075.167)" fill="#d1d1ce"/>
    </g>
  </g>
</svg>
