<svg id="Group_248" data-name="Group 248" xmlns="http://www.w3.org/2000/svg" width="148.026" height="147.228" viewBox="0 0 148.026 147.228">
  <g id="Group_41" data-name="Group 41" transform="translate(0 0)">
    <g id="Group_39" data-name="Group 39">
      <g id="Group_38" data-name="Group 38">
        <path id="Path_110" data-name="Path 110" d="M1350.034,329.429a71.192,71.192,0,0,1-2.065,18.954c-2.269,8.588-6.723,14.143-11.67,21.147-5.505,7.8-10.435,16.114-18.886,20.671a199.162,199.162,0,0,1-18.257,8.407c-18.86,7.778-40.125,4.95-57.9-4.332-8.647-4.512-17.583-10.683-23.883-18.233-12.359-14.808-16.324-35.355-15.163-54.194,1.194-19.262,7.879-31.005,21.419-44.451,4.743-4.7,6.735-7.612,13.026-9.8,7.958-2.763,15.334-7.675,23.3-9.439a93.505,93.505,0,0,1,27.445-1.995c9.332.739,20.16,5.248,28.257,10.145a69.352,69.352,0,0,1,28.928,33.718A86.422,86.422,0,0,1,1350.034,329.429Z" transform="translate(-1202.019 -255.89)" fill="#d7e100"/>
      </g>
    </g>
    <g id="Group_40" data-name="Group 40" transform="translate(20.774 45.626)">
      <path id="Path_111" data-name="Path 111" d="M1209.339,272.731c3.28-.115,9.129.488,9.743.355s7.97,1.516,11.123,2.346,6.912,3.171,7.571,3.289a18.768,18.768,0,0,1,5.626,4.031c1.276,1.6,2.769,3.224,3.656,4.161a15.8,15.8,0,0,1,2.332,4.5c-.047.293,1.12,5.154.987,5.975s-.674,4.758-1.732,6.785c-1-1.877-1.936-3.18-2.991-5.287s-2.385-3.319-3.186-4.805a20.87,20.87,0,0,0-4.669-5.446,58.58,58.58,0,0,1-5.612-4.607,19.916,19.916,0,0,0-5.476-3.2c-1.991-.851-5.195-2.379-8.274-3.463a48.848,48.848,0,0,1,5.931,3.576,26.449,26.449,0,0,0,3.771,2.733,32.956,32.956,0,0,1,6.865,6.194,29.089,29.089,0,0,0,4.71,5.544,19.533,19.533,0,0,1,4.654,7.273,49.647,49.647,0,0,0,2.893,6.342,15.835,15.835,0,0,1,1.54,5.792c-.1,1.034.568,4.861.316,7.524-.224,1.321-1.019,2.565-1.386,1.037-.051-1.723-.666-4.347-.7-5.8a7.228,7.228,0,0,0-1.159-3.957c-.875-1.466-1.158-2.737-1.962-4.081a15.458,15.458,0,0,1-5.588,2.024c-1.628.319-6.794-.863-8.791-2.29s-3.913-2.388-5.343-3.986c-.225-.21-.281-.08-.689-.647s-2.455-2.7-3.679-4.474a34.869,34.869,0,0,1-3.942-7.618c-.718-1.924-1.82-4.855-1.75-6.351a12.53,12.53,0,0,0-1.158-5.479,30.726,30.726,0,0,1-1.534-3.913,10.751,10.751,0,0,0-2.175-3.354l-.012-.012C1208.884,272.991,1209.08,272.8,1209.339,272.731Z" transform="translate(-1209.048 -268.617)" fill="#4bb131"/>
      <path id="Path_112" data-name="Path 112" d="M1291.37,273.395c-4.581-.987-12.947-1.6-13.78-1.945s-11.575.13-16.215.505-10.508,2.719-11.454,2.719-6.72,2.329-8.91,4.255-4.7,3.83-6.2,4.923a22.872,22.872,0,0,0-4.394,5.745c-.009.423-2.867,6.962-2.89,8.147s-.243,6.853.733,9.965c1.87-2.382,3.522-3.984,5.529-6.679s4.188-4.06,5.68-5.949a29.958,29.958,0,0,1,7.926-6.478,84.192,84.192,0,0,0,9.04-5.065c1.818-1.283,5.485-2.423,8.5-3.118s7.9-2.039,12.5-2.8a70.22,70.22,0,0,0-9.235,3.537,37.019,37.019,0,0,1-5.981,2.9c-3.661,1.484-9.714,5.405-11.191,6.977a41.63,41.63,0,0,1-8.014,6.608,27.783,27.783,0,0,0-8.36,9.055c-.969,2.116-3.9,5.742-5.662,8.18s-3.478,6.277-3.608,7.751-2.027,6.684-2.338,10.491c-.021,1.909.792,3.859,1.687,1.8.506-2.408,2.024-5.94,2.435-7.961a10.321,10.321,0,0,1,2.627-5.269c1.6-1.844,2.317-3.552,3.788-5.243a21.916,21.916,0,0,0,7.335,4.244c2.213.86,9.76.5,12.928-1.014s6.09-2.367,8.5-4.255c.378-.239.411-.041,1.138-.736s4.122-3.174,6.286-5.367a49.99,49.99,0,0,0,7.447-9.708c1.489-2.527,3.774-6.368,4.049-8.484a17.911,17.911,0,0,1,3.005-7.409,43.045,43.045,0,0,0,3.139-5.109c.736-1.51,2.391-2.893,3.895-4.17l.009-.015C1291.94,273.873,1291.722,273.563,1291.37,273.395Z" transform="translate(-1181.697 -271.329)" fill="#006c3a"/>
    </g>
  </g>
</svg>
