<svg id="Group_253" data-name="Group 253" xmlns="http://www.w3.org/2000/svg" width="148.026" height="145.745" viewBox="0 0 148.026 145.745">
  <g id="Group_43" data-name="Group 43" transform="translate(0 0)">
    <path id="Path_113" data-name="Path 113" d="M1250.575,403.01a71.332,71.332,0,0,1-2.07,18.952c-2.262,8.585-6.719,14.138-11.664,21.147-5.509,7.8-10.437,16.109-18.885,20.667a92.7,92.7,0,0,1-12.288,5.948c-18.857,7.777-46.094,7.41-63.872-1.872-8.643-4.512-17.574-10.684-23.883-18.234-12.356-14.806-16.321-35.355-15.161-54.193,1.192-19.257,7.882-31,21.423-44.451,4.742-4.7,6.733-7.608,13.025-9.8,7.957-2.765,15.333-7.675,23.3-9.443a93.5,93.5,0,0,1,27.444-1.991c9.332.738,20.161,5.248,28.258,10.143a69.348,69.348,0,0,1,28.924,33.721A86.306,86.306,0,0,1,1250.575,403.01Z" transform="translate(-1102.559 -329.469)" fill="#4bb131"/>
    <g id="Group_42" data-name="Group 42" transform="translate(26.242 25.599)">
      <path id="Path_114" data-name="Path 114" d="M1118.594,395.465c-4.777-8.044-5.559-18.885-2.413-27.709.994-2.774,4.259-6.219,4.724-8.789.738-4.07-5.821-10.027-8.864-12.173-1.567-1.1,1.119-1.579,4.8-2.436s23.406-3.364,28.177-2.922,4.576-.052,2.945,4.6-3.546,17.464-3.881,21.045c-.809,8.725-8.649,1.227-12.879-.2-.863,4.759-2.108,9.326-.4,13.969.427,1.145,5.559,9.742,6.23,9.434-1.579.727-15.728,9.161-14.887,9.951A21.315,21.315,0,0,1,1118.594,395.465Z" transform="translate(-1111.585 -332.341)" fill="#006c3a"/>
      <path id="Path_115" data-name="Path 115" d="M1133.406,338.419c10.443-1.253,21.429,5.765,25.723,15.292,1.352,2.992,3.349,6.3,4.236,9.643,2.073-1.186,12.833-4.713,14.757-2.846,1.858,1.8-1.329,7.085-2.218,9.036-2.817,6.16-5.771,12.888-9.818,18.353-2.852,3.846-1.494,3.067-5.462.122-5.277-3.91-13.321-9.7-16.214-11.841-7.591-5.634,4.527-7.506,8.225-9.082-7.626-8.7-13.94-10.065-25.313-10.12-.387,0-2.047-17.371,5.881-18.528C1133.275,338.436,1133.34,338.428,1133.406,338.419Z" transform="translate(-1082.353 -338.274)" fill="#006c3a"/>
      <path id="Path_116" data-name="Path 116" d="M1182.589,369.111c-5.594,13.129-22.633,22.819-36.9,19.51-.4,3.663-2.823,6.274-3.108,10.021-.143,1.927-1.924-.145-4.547-2.875s-14.856-18.409-16.911-22.734-2.384-3.9,2.46-4.878,16.836-5.881,20.077-7.425,5.593-1.064,5.538,1.619c-.058,3.1.145,8.623-1.666,11.262,10.17,3.6,15.81-9.108,19.336-16.1,1.317.829,16.891,8.224,16.993,7.8A24.794,24.794,0,0,1,1182.589,369.111Z" transform="translate(-1096.108 -301.58)" fill="#006c3a"/>
    </g>
  </g>
</svg>
