<svg id="Group_172" data-name="Group 172" xmlns="http://www.w3.org/2000/svg" width="211" height="209.86" viewBox="0 0 211 209.86">
  <path id="Path_234" data-name="Path 234" d="M654.01,211.245a101.508,101.508,0,0,1-2.953,27.017c-3.227,12.241-9.574,20.156-16.626,30.143-7.86,11.125-14.878,22.965-26.921,29.46a284.99,284.99,0,0,1-26.023,11.988c-26.882,11.087-57.194,7.056-82.53-6.179-12.333-6.428-25.063-15.227-34.043-25.99-17.624-21.108-23.277-50.391-21.613-77.248,1.693-27.451,11.221-44.195,30.53-63.361,6.752-6.7,9.6-10.847,18.568-13.968,11.335-3.938,21.857-10.939,33.214-13.458a133.293,133.293,0,0,1,39.119-2.839c13.311,1.053,28.744,7.477,40.277,14.456,18.563,11.221,33.256,27.83,41.234,48.066C651.023,181.439,653.795,196.565,654.01,211.245Z" transform="translate(-443.023 -106.42)" fill="#ebebec"/>
  <g id="Group_170" data-name="Group 170" transform="translate(49.969 42.812)">
    <path id="Path_235" data-name="Path 235" d="M490.442,192.632l-.526,4.225c-.354,2.814-.88,3.871-3.875,3.871h-9.5c-2.995,0-3.7-1.057-3.875-3.871l-.354-4.225a29.2,29.2,0,0,1-.173-3.172c0-18.13,16.192-28.513,16.192-44.89,0-7.039-2.995-9.5-5.809-9.5-4.928,0-6.516,5.459-8.45,12.852-.354,1.584-1.053,2.991-3.168,2.991a8.981,8.981,0,0,1-1.933-.354l-10.034-2.986c-2.995-.885-4.048-1.938-4.048-3.7a12.539,12.539,0,0,1,.354-2.115c2.641-13.551,12.14-25.172,28.332-25.172,16.373,0,26.583,11.8,26.583,27.813C510.155,165.522,492.729,174.848,490.442,192.632Zm-8.622,43.3c-8.1,0-11.445-6.339-11.445-12.852,0-6.339,3.34-12.67,11.445-12.67s11.436,6.331,11.436,12.67C493.255,229.594,489.915,235.934,481.819,235.934Z" transform="translate(-454.886 -116.584)" fill="#ff9837"/>
  </g>
  <g id="Group_171" data-name="Group 171" transform="translate(121.881 42.635)">
    <path id="Path_236" data-name="Path 236" d="M483.394,236.069c-8.1,0-11.436-6.339-11.436-12.852,0-6.339,3.34-12.67,11.436-12.67s11.44,6.331,11.44,12.67C494.835,229.729,491.5,236.069,483.394,236.069Zm-10.737-112.13c0-2.995.708-3.871,3.875-4.579l12.325-2.464a20.02,20.02,0,0,1,2.46-.354c2.11,0,2.991,1.411,2.991,3.7l-2.283,76.751c0,2.814-.88,3.871-3.875,3.871h-9.5c-2.995,0-3.875-1.057-3.875-3.871Z" transform="translate(-471.958 -116.542)" fill="#4bb131"/>
  </g>
</svg>
