<svg xmlns="http://www.w3.org/2000/svg" width="211" height="209.862" viewBox="0 0 211 209.862">
  <g id="Group_193" data-name="Group 193" transform="translate(-1376.595 -760.634)">
    <g id="Group_189" data-name="Group 189" transform="translate(1376.595 760.634)">
      <g id="Group_188" data-name="Group 188">
        <g id="Group_187" data-name="Group 187">
          <g id="Group_186" data-name="Group 186">
            <path id="Path_243" data-name="Path 243" d="M1587.579,865.461a101.255,101.255,0,0,1-2.944,27.013c-3.231,12.241-9.583,20.156-16.634,30.144-7.848,11.125-14.874,22.97-26.921,29.465a283.19,283.19,0,0,1-26.02,11.984c-26.887,11.091-57.195,7.056-82.532-6.175-12.325-6.432-25.06-15.228-34.044-25.99-17.616-21.108-23.27-50.4-21.614-77.246,1.7-27.456,11.23-44.2,30.531-63.366,6.766-6.706,9.6-10.847,18.568-13.968,11.348-3.943,21.857-10.944,33.218-13.458a133.131,133.131,0,0,1,39.12-2.839c13.3,1.053,28.736,7.477,40.282,14.457,18.551,11.222,33.244,27.831,41.234,48.063C1584.592,835.651,1587.368,850.786,1587.579,865.461Z" transform="translate(-1376.595 -760.634)" fill="#ebebec"/>
          </g>
        </g>
      </g>
    </g>
    <g id="Group_192" data-name="Group 192" transform="translate(1407.06 789.38)">
      <g id="Group_190" data-name="Group 190">
        <path id="Path_244" data-name="Path 244" d="M1397.538,872.719l9.094-5.126c.8-.442,2.064-1.221,2.823-1.714l8.765-5.741c.763-.5,2.035-1.256,2.823-1.7l9.17-5.021c.8-.434,2.094-1.158,2.873-1.6l9.09-5.168c.788-.455-4.022,2.043,2.852-1.668A71.183,71.183,0,0,0,1454,839.6h0c.345-1.213.147-7.456.147-7.456.017-.906.033-2.393.025-3.307l-.021-10.455c0-.9-.021-2.38-.038-3.29l-.194-10.455c-.012-.9.013-2.384.063-3.29l.628-10.459c.05-.9.1-2.388.084-3.3l-.063-10.438c-.013-.9-.042-2.4-.08-3.294,0,0,1.85-5.455-.24-6.276s-16.626,2.708-24.145,5.826c-9.216,3.816-17,9.865-23.956,16.812a74.849,74.849,0,0,0-22.38,52.768c0,10.219,1.116,20.253,4.806,29.145.6,1.458,1.053,4.376,2.039,4.238s3.968-2.077,3.968-2.077C1395.44,873.877,1396.75,873.157,1397.538,872.719Z" transform="translate(-1383.827 -767.458)" fill="#006c3a"/>
        <path id="Path_245" data-name="Path 245" d="M1506.562,816.711l-9.095-5.151c-.783-.438-2.115-1.12-2.936-1.5l-9.5-4.385c-.834-.383-2.148-1.041-2.953-1.47l-9.216-4.916c-.8-.434-2.127-1.125-2.936-1.542l-9.288-4.768c-.813-.413-2.123-1.108-2.919-1.542,0,0-6.9-4.069-8.639-4.735s-8.357,5.034-8.357,5.034c-.788.463-2.06,1.213-2.86,1.656l-9.086,5.135c-.8.451-2.089,1.2-2.877,1.656l-9.006,5.286c-.788.463-2.081,1.175-2.9,1.588l-9.31,4.764c-.8.417-2.11,1.154-2.873,1.622l-8.884,5.51c-.771.484-2.055,1.247-2.831,1.7,0,0-3.387,1.133-3.433,1.98s6.71,7.94,10.35,11.58c6.938,6.942,14.279,14.2,23.492,18.021,8.884,3.686,19.132,5.084,29.355,5.084s19.7-3.26,28.581-6.946c9.212-3.82,18.833-7.708,25.775-14.65,4.191-4.2,12.439-12.726,11.2-14.292s-5.96-3.125-5.96-3.125C1508.667,817.874,1507.353,817.162,1506.562,816.711Z" transform="translate(-1374.707 -705.827)" fill="#ffcc32"/>
      </g>
      <g id="Group_191" data-name="Group 191" transform="translate(79.735 0.138)">
        <path id="Path_246" data-name="Path 246" d="M1429.285,817.685,1441.9,805.1c.964-.96,2.641-2.569,3.647-3.513l13.033-12.178c1.112-1.032,2.843-2.763,3.871-3.859l.126-.131a71.258,71.258,0,0,0-9.764-12.759l-2.9,2.839c-1.04,1.007-2.754,2.637-3.77,3.648L1433.409,791.6c-1.087,1.053-2.789,2.831-3.808,3.964l-11.921,13.294c-.868.965-2.409,2.519-3.366,3.425l-11.529,10.746-.013.568,7.675,4.191c.8.434,2.115,1.133,2.919,1.554l2.7,1.394,9.486-9.355C1426.6,820.355,1428.266,818.7,1429.285,817.685Z" transform="translate(-1402.701 -750.89)" fill="#4bb131"/>
        <path id="Path_247" data-name="Path 247" d="M1412.268,771.341l2.165-2.026a71.079,71.079,0,0,0-11.47-1.824l-.017,6.26c0,.9-.03,2.393-.063,3.3l-.126,3.648,5.859-5.851C1409.58,773.885,1411.257,772.28,1412.268,771.341Z" transform="translate(-1402.756 -767.491)" fill="#4bb131"/>
        <path id="Path_248" data-name="Path 248" d="M1428.152,818.154l12.612-12.586c.96-.965,2.646-2.565,3.648-3.513l7.831-7.317a58.565,58.565,0,0,0-3.808-16.243c-.358.346-.7.678-.973.956L1434.715,791.9c-1.087,1.057-2.789,2.835-3.808,3.968l-11.92,13.294c-.868.969-2.406,2.523-3.37,3.429l-6.559,6.108,5.708,2.835c.8.4,2.11,1.116,2.881,1.58l3.42,2.047,3.357-3.311C1425.461,820.829,1427.129,819.173,1428.152,818.154Z" transform="translate(-1382.512 -732.142)" fill="#4bb131"/>
        <path id="Path_249" data-name="Path 249" d="M1407.687,810.315l12.616-12.586c.964-.96,2.641-2.57,3.647-3.513l13.033-12.178c1.108-1.032,2.848-2.767,3.875-3.863l1.7-1.807a104.249,104.249,0,0,0-14.477-7.346l-6.614,6.458c-1.086,1.053-2.789,2.839-3.808,3.968l-11.921,13.294c-.746.826-1.955,2.055-2.9,2.965l.029.619c.047.923.072,2.393.063,3.3l-.118,10.442c-.008.91-.008,2.405-.008,3.319l.013,1.748,1.146-1.133C1405,812.99,1406.667,811.335,1407.687,810.315Z" transform="translate(-1402.598 -762.573)" fill="#4bb131"/>
        <path id="Path_250" data-name="Path 250" d="M1419,802.769c-.867.965-2.409,2.523-3.365,3.429l-.645.6,4.794,2.451c.8.4,2.148,1.07,2.961,1.449l6.154,2.915c.346-.754.691-1.508,1.011-2.271,3.138-7.574,3.749-16.175,3.862-24.874-.973.986-2.1,2.173-2.852,3.008Z" transform="translate(-1363.469 -706.534)" fill="#4bb131"/>
      </g>
    </g>
  </g>
</svg>
