<svg xmlns="http://www.w3.org/2000/svg" width="418.914" height="327.586" viewBox="0 0 418.914 327.586">
  <g id="Group_24" data-name="Group 24" transform="translate(0)">
    <g id="Group_12" data-name="Group 12" transform="translate(0 0)">
      <path id="Path_42" data-name="Path 42" d="M1237.1,1167.152a106.173,106.173,0,0,1-3.07,28.12c-3.364,12.74-9.976,20.978-17.312,31.368-8.173,11.58-15.483,23.9-28.017,30.669a294.417,294.417,0,0,1-27.085,12.464c-27.973,11.542-59.519,7.345-85.892-6.422-12.818-6.689-26.076-15.854-35.427-27.046-18.33-21.974-24.212-52.454-22.492-80.4,1.768-28.569,11.683-45.994,31.782-65.941,7.034-6.978,9.98-11.291,19.314-14.535,11.8-4.1,22.75-11.39,34.576-14.008a138.524,138.524,0,0,1,40.71-2.959c13.84,1.1,29.906,7.784,41.917,15.048,19.318,11.683,34.607,28.965,42.909,50.025C1234,1136.134,1236.878,1151.881,1237.1,1167.152Z" transform="translate(-1017.522 -1058.056)" fill="#006c3a"/>
      <path id="Path_43" data-name="Path 43" d="M1044.933,1117.29c-.177-.224-.354-.483-.531-.755-3.1-4.752-1.583-19.507-1.518-25.041.06-5.516-1.734-19.455,2.906-23.444,6.849-5.871,25.719-.376,23.7,8.872-2.169,10-7.009,16.591-11.412,25.494C1056.693,1105.24,1051.941,1126.667,1044.933,1117.29Z" transform="translate(-934.918 -1032.985)" fill="#ff9837"/>
      <path id="Path_44" data-name="Path 44" d="M1051.8,1081.365c4.093.724,8.777,2.738,10.765,3.3,6.78,1.941,32.222,5.119,32.515,15.138.086,2.76-7.646,17.882-11.356,15.738-7.116-4.114-13.46-6.857-19.938-12.278-4.792-4.016-9.333-8.316-14.177-12.258C1044.418,1086.786,1042.49,1079.734,1051.8,1081.365Z" transform="translate(-925.609 -981.631)" fill="#ff9837"/>
      <path id="Path_45" data-name="Path 45" d="M1079.372,1089.112c-5.995,5.538-17.687,10.873-20.965,13.616-5.581,4.671-9.726,9.614-16.674,12.866-3.421-2.618-13.893-13.659-13.354-18.343.462-4.046,4.551-4.042,7.85-5.111,3.243-1.057,46.329-17.882,46.739-9.2C1083.056,1084.945,1081.615,1087.042,1079.372,1089.112Z" transform="translate(-981.615 -983.823)" fill="#ff9837"/>
      <path id="Path_46" data-name="Path 46" d="M1055.293,1085.526a6.765,6.765,0,1,1-6.763-6.763A6.761,6.761,0,0,1,1055.293,1085.526Z" transform="translate(-937.209 -989.455)" fill="#ff9837"/>
      <path id="Path_47" data-name="Path 47" d="M1041.424,1133.592c.241-4.576,1.143-9.433,1.178-12.525.12-10.727.979-21.457.988-32.213.009-7.461,11.666-8.4,11.666,0,.009,18.023,3.563,36.371,2.592,54.282-3-1.829-11.136-1.087-14.487.608C1041.5,1141.51,1041.2,1137.659,1041.424,1133.592Z" transform="translate(-938.543 -975.746)" fill="#ff9837"/>
      <path id="Path_48" data-name="Path 48" d="M1035.318,1100.488c8.854,3.373,16.032-2.54,24.631-3.674,6.784-.884,9.514,3.571,15.716,5.283,11.675,3.23,19.9-10.381,31.109-7.341,4.261,1.152,7.522,5.391,12.085,5.9,5.62.634,8.375-3.7,13.336-5.887,8.483-3.735,8.945,5.119,15.746,7.4,5.422,1.82,21.4-2.031,23.7-8.29-2.562,6.961-7.457,18.179-14.246,21.8-6.594,3.506-13.034-1.147-18.843-2.773-6.573-1.842-8.281,3.118-14.617,3.222-4.878.086-8.509-4.417-13.275-5.141-8.54-1.29-13.62,4.671-21.051,6.4-7.487,1.738-13.081-3.2-20.215-5-8.984-2.273-16.911,3.088-25.748,2.739-9.791-.384-14.988-10.506-17.886-18.611C1029.405,1097.521,1032.2,1099.307,1035.318,1100.488Z" transform="translate(-990.213 -939.434)" fill="#4bb131"/>
    </g>
    <g id="Group_7" data-name="Group 7" transform="translate(190.219 15.774)">
      <path id="Path_35" data-name="Path 35" d="M1331.239,443.088a110.2,110.2,0,0,1-3.2,29.28c-3.494,13.264-10.38,21.842-18.02,32.672-8.511,12.055-16.125,24.888-29.177,31.93-8.938,4.819-9.765,5.385-18.986,9.19-29.133,12.015-71.213,11.449-98.68-2.893-13.353-6.971-27.151-16.506-36.9-28.171-19.089-22.876-25.216-54.622-23.423-83.727,1.842-29.752,12.177-47.893,33.1-68.676,7.325-7.263,10.4-11.754,20.122-15.136,12.293-4.271,23.689-11.858,36-14.589a144.46,144.46,0,0,1,42.4-3.077c14.418,1.141,31.149,8.107,43.658,15.671,20.108,12.163,36.031,30.165,44.686,52.1C1328,410.776,1331.005,427.175,1331.239,443.088Z" transform="translate(-1102.559 -329.469)" fill="#4bb131"/>
      <g id="Group_6" data-name="Group 6" transform="translate(40.542 39.55)">
        <path id="Path_36" data-name="Path 36" d="M1122.413,424.936c-7.379-12.428-8.588-29.177-3.727-42.809,1.536-4.285,6.58-9.607,7.3-13.578,1.141-6.288-8.993-15.491-13.695-18.806-2.421-1.707,1.729-2.439,7.421-3.764s36.161-5.2,43.532-4.514,7.07-.081,4.55,7.115-5.48,26.981-6,32.514c-1.249,13.479-13.363,1.9-19.9-.306-1.334,7.353-3.256,14.409-.615,21.582.66,1.77,8.588,15.051,9.625,14.575-2.439,1.123-24.3,14.153-23,15.375A32.953,32.953,0,0,1,1122.413,424.936Z" transform="translate(-1111.585 -327.412)" fill="#006c3a"/>
        <path id="Path_37" data-name="Path 37" d="M1136.945,338.5c16.134-1.936,33.107,8.907,39.742,23.626,2.089,4.622,5.174,9.733,6.544,14.9,3.2-1.833,19.825-7.281,22.8-4.4,2.87,2.78-2.053,10.946-3.427,13.96-4.352,9.517-8.916,19.911-15.168,28.355-4.406,5.942-2.308,4.739-8.439.189-8.153-6.041-20.58-14.988-25.05-18.294-11.728-8.7,6.993-11.6,12.706-14.032-11.781-13.434-21.537-15.55-39.108-15.635-.6,0-3.162-26.837,9.087-28.625C1136.743,338.525,1136.842,338.512,1136.945,338.5Z" transform="translate(-1058.069 -338.274)" fill="#006c3a"/>
        <path id="Path_38" data-name="Path 38" d="M1216.861,375.431c-8.642,20.284-34.967,35.254-57.012,30.143-.615,5.659-4.361,9.693-4.8,15.482-.22,2.978-2.974-.225-7.025-4.442s-22.952-28.441-26.127-35.124-3.683-6.032,3.8-7.537,26.011-9.086,31.019-11.471,8.641-1.644,8.556,2.5c-.089,4.788.225,13.322-2.574,17.4,15.712,5.57,24.426-14.072,29.873-24.87,2.035,1.28,26.1,12.707,26.254,12.051A38.247,38.247,0,0,1,1216.861,375.431Z" transform="translate(-1083.251 -271.097)" fill="#006c3a"/>
      </g>
    </g>
    <g id="Group_11" data-name="Group 11" transform="translate(102.997 154.031)">
      <g id="Group_9" data-name="Group 9" transform="translate(0 0)">
        <g id="Group_8" data-name="Group 8">
          <path id="Path_39" data-name="Path 39" d="M1376.5,417.008a83.97,83.97,0,0,1-2.435,22.344c-2.675,10.123-7.925,16.669-13.757,24.929-6.49,9.2-12.3,18.992-22.264,24.364a232.983,232.983,0,0,1-21.521,9.911c-22.233,9.172-47.3,5.835-68.251-5.1-10.193-5.323-20.727-12.6-28.155-21.5-14.568-17.456-19.243-41.674-17.874-63.885,1.407-22.7,9.287-36.546,25.249-52.4,5.591-5.542,7.939-8.97,15.356-11.552,9.381-3.261,18.076-9.05,27.471-11.13a110.217,110.217,0,0,1,32.352-2.348c11,.871,23.765,6.183,33.31,11.956a81.745,81.745,0,0,1,34.1,39.751C1374.032,392.358,1376.325,404.867,1376.5,417.008Z" transform="translate(-1202.019 -330.316)" fill="#ffe90a"/>
        </g>
      </g>
      <g id="Group_10" data-name="Group 10" transform="translate(24.488 53.784)">
        <path id="Path_40" data-name="Path 40" d="M1209.392,347.159c3.867-.136,10.761.578,11.485.418s9.4,1.791,13.112,2.766,8.148,3.741,8.925,3.877a22.141,22.141,0,0,1,6.633,4.755c1.505,1.888,3.264,3.8,4.31,4.9a18.532,18.532,0,0,1,2.748,5.309c-.056.345,1.32,6.075,1.164,7.04s-.794,5.612-2.042,8c-1.177-2.212-2.282-3.752-3.525-6.236s-2.811-3.912-3.755-5.664a24.7,24.7,0,0,0-5.5-6.42,68.551,68.551,0,0,1-6.615-5.428,23.566,23.566,0,0,0-6.455-3.773c-2.348-1-6.125-2.8-9.754-4.083a58.026,58.026,0,0,1,6.992,4.215,31.416,31.416,0,0,0,4.445,3.226,38.743,38.743,0,0,1,8.092,7.3,34.183,34.183,0,0,0,5.553,6.539,23.022,23.022,0,0,1,5.487,8.573c.481,1.864,2.337,5.236,3.41,7.476a18.65,18.65,0,0,1,1.815,6.828c-.115,1.216.669,5.73.373,8.866-.265,1.557-1.2,3.024-1.634,1.226-.059-2.034-.784-5.128-.829-6.831a8.51,8.51,0,0,0-1.366-4.665c-1.031-1.731-1.366-3.226-2.313-4.814a18.227,18.227,0,0,1-6.587,2.386c-1.92.38-8.009-1.014-10.364-2.7s-4.612-2.811-6.3-4.7c-.265-.251-.331-.094-.812-.763s-2.895-3.177-4.337-5.278a41.085,41.085,0,0,1-4.647-8.977c-.847-2.268-2.146-5.724-2.062-7.486a14.8,14.8,0,0,0-1.366-6.462,36.284,36.284,0,0,1-1.808-4.609,12.641,12.641,0,0,0-2.563-3.957l-.014-.01C1208.856,347.466,1209.085,347.246,1209.392,347.159Z" transform="translate(-1209.048 -342.312)" fill="#4bb131"/>
        <path id="Path_41" data-name="Path 41" d="M1303.589,348.192c-5.4-1.164-15.261-1.892-16.244-2.3s-13.645.157-19.115.6-12.388,3.208-13.5,3.208-7.922,2.745-10.5,5.016-5.546,4.515-7.308,5.8a26.882,26.882,0,0,0-5.18,6.772c-.011.5-3.38,8.2-3.407,9.6s-.286,8.078.864,11.747c2.205-2.811,4.152-4.7,6.518-7.876s4.936-4.783,6.7-7.012,6.535-6.333,9.343-7.636a99.217,99.217,0,0,0,10.656-5.967c2.143-1.512,6.465-2.857,10.015-3.675s9.312-2.4,14.732-3.3a82.25,82.25,0,0,0-10.886,4.17,43.69,43.69,0,0,1-7.051,3.414c-4.316,1.745-11.45,6.371-13.192,8.225a49.078,49.078,0,0,1-9.447,7.789,32.715,32.715,0,0,0-9.855,10.674c-1.143,2.494-4.6,6.769-6.674,9.643s-4.1,7.4-4.254,9.137-2.39,7.88-2.755,12.363c-.024,2.25.934,4.55,1.989,2.128.6-2.839,2.386-7,2.87-9.388a12.16,12.16,0,0,1,3.1-6.208c1.888-2.174,2.731-4.191,4.466-6.183,2.446,2.411,6.037,4,8.646,5.006s11.506.582,15.24-1.195,7.179-2.794,10.022-5.02c.446-.282.484-.049,1.342-.864s4.86-3.741,7.409-6.326A58.947,58.947,0,0,0,1286.9,379.1c1.756-2.975,4.448-7.5,4.773-10a21.132,21.132,0,0,1,3.543-8.737,50.494,50.494,0,0,0,3.7-6.023c.868-1.78,2.818-3.41,4.591-4.915l.01-.014C1304.262,348.756,1304,348.391,1303.589,348.192Z" transform="translate(-1174.305 -345.756)" fill="#006c3a"/>
      </g>
    </g>
  </g>
</svg>
