<svg xmlns="http://www.w3.org/2000/svg" xmlns:xlink="http://www.w3.org/1999/xlink" width="537.254" height="350.936" viewBox="0 0 537.254 350.936">
  <defs>
    <clipPath id="clip-path">
      <path id="Path_67" data-name="Path 67" d="M793.651,1539.449c-.075-7.967,23-15.469,34.827-14.711,18.932,1.211,35.014,6.174,35.089,14.135l.058,7.037c.075,7.967-15.586,13.042-34.822,14.712-17.582,1.526-34.3-7.923-35.089-14.135Z" transform="translate(-793.651 -1524.685)" fill="none"/>
    </clipPath>
    <clipPath id="clip-path-2">
      <path id="Path_83" data-name="Path 83" d="M796.6,1536.086c-.069-7.966,23-15.463,34.827-14.71,18.932,1.217,35.02,6.174,35.089,14.14l.064,7.038c.075,7.961-15.586,13.036-34.827,14.711-17.582,1.526-34.3-7.924-35.089-14.14Z" transform="translate(-796.597 -1521.323)" fill="none"/>
    </clipPath>
  </defs>
  <g id="Group_319" data-name="Group 319" transform="translate(-1092.808 -471.443)">
    <g id="Group_245" data-name="Group 245" transform="translate(1277.215 471.444)">
      <g id="Group_157" data-name="Group 157" transform="translate(0 0)">
        <path id="Path_211" data-name="Path 211" d="M959.339,2252.549c.239,15.9-1.317,31.5-4.938,45.172-5.388,20.478-16.011,33.72-27.8,50.406-13.137,18.611-24.872,38.412-45.032,49.274-13.785,7.437-29.275,14.171-43.5,20.046-44.961,18.542-95.664,11.8-138.019-10.327-20.624-10.761-41.9-25.477-56.929-43.468-29.472-35.3-38.925-84.274-36.143-129.179,2.832-45.9,18.765-73.9,51.055-105.955,11.292-11.213,16.039-18.137,31.036-23.35,18.976-6.6,36.572-18.307,55.556-22.513a222.649,222.649,0,0,1,65.417-4.739c22.259,1.747,48.054,12.5,67.355,24.174,31.043,18.759,55.6,46.541,68.961,80.371C954.345,2202.7,958.987,2228.014,959.339,2252.549Z" transform="translate(-606.516 -2077.258)" fill="#ebebec"/>
        <g id="Group_136" data-name="Group 136" transform="translate(118.909 36.75)">
          <path id="Path_212" data-name="Path 212" d="M643.859,2101.317c1.838-6.219.606-5.775.521-13.277a5.011,5.011,0,0,1,4.973-5.08c15.243-.091,38.164-.914,54.042-.189a6.972,6.972,0,0,1,6.614,6.2,35.209,35.209,0,0,0,1.141,6.271c5.037,9.608,27.091,29.635,34.185,39.1,9.39,12.54,3.747,20.879,3.078,36.995-2.472,59.549-.634,106.363-3.987,164.871a2.317,2.317,0,0,1-1.219,1.9c-20.47,10.832-36.593,23.131-53.21,25.393-16.25,2.21-39.749-11.047-59.373-16.689a5.814,5.814,0,0,1-4.205-5.331c-1.113-23.8-1.648-85.951-1.782-96.327-.394-29.817-1.48-85.484-1.191-101.108a3.626,3.626,0,0,1,.535-1.825C631.539,2129.916,643.859,2101.317,643.859,2101.317Z" transform="translate(-623.397 -2082.475)" fill="#868b8d"/>
          <path id="Path_213" data-name="Path 213" d="M686.839,2289.657c-13.285,10.474-20.85,14.433-34.494,19.609-7.861,2.988-19.54,7.229-19.462,6.405,1.563-16.21,3.592-72.773,3.754-83.859.388-25.535,2.184-49.076-.056-95.375-.366-7.608-3.7-32.122-3.733-39.572,24.245-1.312,29.669-2.776,35.523-3.747,6.48-1.079,17.885-1.219,22.35-2.727a24.532,24.532,0,0,1,2.345,6.2,29.626,29.626,0,0,1,.141,10.559c-2.874,17.27-2.43,31.7-2.9,48.532-.493,17.722-.726,30.155-.529,36.762C689.783,2192.647,690.058,2287.114,686.839,2289.657Z" transform="translate(-566.283 -2034.646)" fill="#d1d1ce"/>
          <path id="Path_214" data-name="Path 214" d="M684.873,2118.417c-7.79-11.475-21.23-23.949-30.648-32.915a.551.551,0,0,0-.873.148c-7.1,12.965-17.476,25.766-20.723,38.847C655.3,2122.1,665.939,2122.356,684.873,2118.417Z" transform="translate(-567.607 -2065.115)" fill="#cbcdcc"/>
          <path id="Path_215" data-name="Path 215" d="M683.128,2125.645c-3.677-5.409,20.47-39.468,18.216-39.382-20.914.81-45.743-1.156-59.493-1.1-7.875,17.193-10.179,19.856-17.708,35.556C646.267,2122.582,661.362,2122.574,683.128,2125.645Z" transform="translate(-618.895 -2066.238)" fill="#d1d1ce"/>
        </g>
      </g>
      <g id="Group_167" data-name="Group 167" transform="translate(131.205 167.126)">
        <path id="Path_232" data-name="Path 232" d="M40.275,24.4a28.905,28.905,0,0,1-.582,6.308c-.625,2.861-1.845,4.713-3.2,7.05-1.508,2.6-2.856,5.371-5.16,6.9a50.674,50.674,0,0,1-4.977,2.816C21.216,50.077,15.433,49.16,10.6,46.09a22.443,22.443,0,0,1-6.477-6.043C.78,35.133-.277,28.3.059,22.032A22.82,22.82,0,0,1,5.935,7.217C7.229,5.646,7.775,4.679,9.489,3.943c2.167-.93,4.179-2.57,6.35-3.167a21.009,21.009,0,0,1,7.47-.693A16.91,16.91,0,0,1,30.989,3.43a22.2,22.2,0,0,1,7.835,11.189A34.354,34.354,0,0,1,40.275,24.4Z" transform="matrix(1, -0.017, 0.017, 1, 0, 0.703)" fill="#ebebec"/>
        <path id="Path_233" data-name="Path 233" d="M1643.224,301.452a35.731,35.731,0,0,0,2.033-5.508,12.506,12.506,0,0,0,0-5.515c-.427-1.045-3.878-6.966-4.3-9.7s.6-10.1.937-11.377,2.088-4.992,4.261-6.5,5.113-2.67,7.542-2.438,5.624,2.205,7.457,4.818a16.647,16.647,0,0,1,2.641,8.069c.043,1.8-.127,4.7,0,5.4a20.167,20.167,0,0,0,1.8,3.323,2.9,2.9,0,0,1,.447,1.785c-.16.61-.895.828-1.342,1s-.8.523-.767.828a1.892,1.892,0,0,0,.192.74,1.694,1.694,0,0,1,.063,1.219c-.16.479-.32.784-.607.914a1.783,1.783,0,0,1,.415,1.263c-.128.609-.767,1.132-.767,1.567s.255,1.829.192,2.221-.607,1.7-1.534,1.829-3.1-.087-3.771.13-1.822,2.264-2.045,3.832a23.363,23.363,0,0,0-.1,3.788c0,.305.1,1.517.1,1.517s-2.227,1.085-6.464,0A16.24,16.24,0,0,1,1643.224,301.452Z" transform="translate(-1632.899 -255.622)" fill="#acacac"/>
      </g>
    </g>
    <g id="Group_23" data-name="Group 23" transform="translate(1092.808 520.031)">
      <path id="Path_49" data-name="Path 49" d="M1038.2,1628.636a129.6,129.6,0,0,1-3.756,34.394c-4.1,15.581-12.2,25.666-21.173,38.376-10,14.162-18.937,29.23-34.272,37.506a360.353,360.353,0,0,1-33.125,15.255c-34.224,14.114-72.819,8.986-105.074-7.86-15.7-8.191-31.9-19.391-43.338-33.093-22.427-26.871-29.619-64.153-27.512-98.334,2.156-34.956,14.29-56.262,38.872-80.663,8.6-8.537,12.214-13.809,23.633-17.784,14.433-5.021,27.826-13.927,42.292-17.128a169.667,169.667,0,0,1,49.8-3.623c16.931,1.344,36.583,9.524,51.272,18.408,23.622,14.284,42.324,35.431,52.494,61.192C1034.39,1590.693,1037.928,1609.956,1038.2,1628.636Z" transform="translate(-769.6 -1495.188)" fill="#dcdcdc"/>
      <g id="Group_13" data-name="Group 13" transform="translate(48.683 96.919)">
        <path id="Path_50" data-name="Path 50" d="M854.113,1526.659s-22.154,9.231-28.536,12.31c-6.34,3.052-46.855,7.406-46.855,7.406s.416,2.763,1.073,7.549c.7,5.07,1.078,7.5,1.878,12.2,0,0,4.914,18.675,4.5,22.635s4.962,19.545,4.962,19.545c.971,3.5,1.249,6.014,3.138,5.939,0,0,50.381-11.328,57.361-15.159,19.177-10.533,43.93-21.3,66.1-16.482.918-2.134.7-4.7-.048-8.318a331.372,331.372,0,0,0-7.363-39.55c-1.5-6.3-2.284-9.306-3.9-15.159-.971-3.537-1.019-5.512-2.572-6.227-6.91,1.137-10.341,1.617-17.288,2.9a91.843,91.843,0,0,0-11.478,2.924A194.421,194.421,0,0,0,854.113,1526.659Z" transform="translate(-778.723 -1513.35)" fill="#006c3a"/>
      </g>
      <g id="Group_14" data-name="Group 14" transform="translate(55.336 87.565)">
        <path id="Path_51" data-name="Path 51" d="M855.91,1519.591s-22.6,6.781-29.15,9.14c-6.5,2.343-46.79,2.535-46.79,2.535s.171,2.732.422,7.464c.262,5.011.427,7.417.811,12.075,0,0,3.271,18.7,2.529,22.506-.742,3.831,3.239,19.541,3.239,19.541.661,3.51.726,5.986,2.588,6.1,0,0,50.6-6,57.8-9.039,19.786-8.345,45.083-16.354,66.517-9.449,1.083-1.984,1.083-4.5.656-8.111a322.941,322.941,0,0,0-3.916-39.272c-.944-6.286-1.467-9.3-2.561-15.159-.662-3.548-.539-5.474-2.006-6.328-6.9.416-10.331.544-17.283,1.1a90.936,90.936,0,0,0-11.552,1.7A193.736,193.736,0,0,0,855.91,1519.591Z" transform="translate(-779.97 -1511.598)" fill="#4bb131"/>
      </g>
      <g id="Group_15" data-name="Group 15" transform="translate(66.185 76.088)">
        <path id="Path_52" data-name="Path 52" d="M863.759,1514.494s-23.6,1.809-30.506,2.732c-6.862.913-46.806-7.779-46.806-7.779s-.315,2.779-.907,7.571c-.63,5.086-.9,7.534-1.34,12.289,0,0-.08,19.465-1.489,23.126-1.419,3.676-.266,20.308-.266,20.308.032,3.666-.347,6.163,1.483,6.691,0,0,51.193,5.144,58.865,3.688,21.082-4.008,47.569-6.458,67.579,5.2,1.43-1.751,1.873-4.28,2.092-7.983a335.539,335.539,0,0,0,3.1-40.249c.176-6.51.2-9.642.155-15.757-.027-3.708.443-5.613-.864-6.792-6.915-1.1-10.331-1.729-17.321-2.711a89.791,89.791,0,0,0-11.744-.843A187.63,187.63,0,0,0,863.759,1514.494Z" transform="translate(-782.004 -1509.447)" fill="#006c3a"/>
      </g>
      <g id="Group_22" data-name="Group 22" transform="translate(128.32 135.075)">
        <path id="Path_53" data-name="Path 53" d="M793.651,1539.449c-.075-7.967,23-15.469,34.827-14.711,18.932,1.211,35.014,6.174,35.089,14.135l.058,7.037c.075,7.967-15.586,13.042-34.822,14.712-17.582,1.526-34.3-7.923-35.089-14.135Z" transform="translate(-793.635 -1502.358)" fill="#aeb1b2"/>
        <path id="Path_54" data-name="Path 54" d="M826.394,1523.865c5.085-.042,12.337,1.7,16.707,2.588,12.214,2.465,20.4,7.331,20.458,14.028.085,9.092-15.5,16.595-34.811,16.749s-35.019-7.086-35.1-16.178S807.089,1524.02,826.394,1523.865Z" transform="translate(-793.648 -1505.919)" fill="#868b8e"/>
        <g id="Group_18" data-name="Group 18" transform="translate(0.016 22.327)">
          <g id="Group_17" data-name="Group 17" clip-path="url(#clip-path)">
            <g id="Group_16" data-name="Group 16" transform="translate(-4.786 11.07)">
              <path id="Path_55" data-name="Path 55" d="M806.083,1550.438l1.091.14v-23.3h-.622Z" transform="translate(-734.958 -1524.533)" fill="#868b8e"/>
              <path id="Path_56" data-name="Path 56" d="M805.387,1550.578h.621v-23.3l-.926.327Z" transform="translate(-739.299 -1524.533)" fill="#868b8e"/>
              <path id="Path_57" data-name="Path 57" d="M804.107,1550.578l.88-.687-.259-22.616h-.621Z" transform="translate(-743.526 -1524.533)" fill="#868b8e"/>
              <path id="Path_58" data-name="Path 58" d="M803.258,1550.578h.621v-23.3l-.846,11.352Z" transform="translate(-748.185 -1524.533)" fill="#868b8e"/>
              <path id="Path_59" data-name="Path 59" d="M802.043,1550.578h.621l.168-10.93-.789-12.373Z" transform="translate(-752.478 -1524.533)" fill="#868b8e"/>
              <rect id="Rectangle_5" data-name="Rectangle 5" width="0.623" height="23.304" transform="translate(44.058 2.742)" fill="#868b8e"/>
              <path id="Path_60" data-name="Path 60" d="M800.306,1550.578h.624v-23.3l-1.027,13.545Z" transform="translate(-761.757 -1524.533)" fill="#868b8e"/>
              <path id="Path_61" data-name="Path 61" d="M798.947,1539h.619l.245-9.055-.849.078Z" transform="translate(-765.903 -1512.955)" fill="#868b8e"/>
              <path id="Path_62" data-name="Path 62" d="M798.166,1554.156h.623v-24.709l-.937,2.658Z" transform="translate(-770.644 -1515.115)" fill="#868b8e"/>
              <path id="Path_63" data-name="Path 63" d="M796.943,1540.463h.621l.15-10.151-.845-.7Z" transform="translate(-774.914 -1514.418)" fill="#868b8e"/>
              <path id="Path_64" data-name="Path 64" d="M795.867,1552.869h.63s.277-21.114,0-23.307-.63,0-.63,0Z" transform="translate(-779.257 -1518.831)" fill="#868b8e"/>
              <path id="Path_65" data-name="Path 65" d="M795,1550.72h.619v-23.3s-.117-.4-.619,0S795,1550.72,795,1550.72Z" transform="translate(-783.984 -1524.675)" fill="#868b8e"/>
              <path id="Path_66" data-name="Path 66" d="M793.8,1552.805h.619s.8-17.133,0-23.3-.619,0-.619,0Z" transform="translate(-788.293 -1526.76)" fill="#868b8e"/>
              <rect id="Rectangle_6" data-name="Rectangle 6" width="0.621" height="23.304" transform="translate(0 2.742)" fill="#868b8e"/>
            </g>
          </g>
        </g>
        <path id="Path_68" data-name="Path 68" d="M822.965,1524.3c4.375.027,10.592,1.617,14.337,2.428,10.474,2.273,17.448,6.557,17.411,12.326-.053,7.823-13.559,14.087-30.174,13.985s-30.036-6.526-29.977-14.347S806.349,1524.2,822.965,1524.3Z" transform="translate(-789.685 -1504.052)" fill="#d1d1ce"/>
        <path id="Path_69" data-name="Path 69" d="M796.6,1536.086c-.069-7.966,23-15.463,34.827-14.71,18.932,1.217,35.02,6.174,35.089,14.14l.064,7.038c.075,7.961-15.586,13.036-34.827,14.711-17.582,1.526-34.3-7.924-35.089-14.14Z" transform="translate(-780.861 -1516.94)" fill="#aeb1b2"/>
        <path id="Path_70" data-name="Path 70" d="M829.346,1520.5c5.085-.043,12.337,1.7,16.7,2.583,12.219,2.475,20.4,7.331,20.463,14.033.08,9.092-15.5,16.594-34.817,16.755-19.3.16-35.014-7.086-35.1-16.179S810.041,1520.663,829.346,1520.5Z" transform="translate(-780.875 -1520.502)" fill="#868b8e"/>
        <g id="Group_21" data-name="Group 21" transform="translate(15.736 4.383)">
          <g id="Group_20" data-name="Group 20" clip-path="url(#clip-path-2)">
            <g id="Group_19" data-name="Group 19" transform="translate(-4.395 11.075)">
              <path id="Path_71" data-name="Path 71" d="M809.031,1547.077l1.084.14v-23.3H809.5Z" transform="translate(-738.288 -1521.171)" fill="#868b8e"/>
              <path id="Path_72" data-name="Path 72" d="M808.336,1547.217h.623v-23.3l-.923.319Z" transform="translate(-742.606 -1521.171)" fill="#868b8e"/>
              <path id="Path_73" data-name="Path 73" d="M807.066,1547.217l.875-.69-.256-22.613h-.619Z" transform="translate(-746.81 -1521.171)" fill="#868b8e"/>
              <path id="Path_74" data-name="Path 74" d="M806.225,1547.217h.615v-23.3L806,1535.264Z" transform="translate(-751.445 -1521.171)" fill="#868b8e"/>
              <path id="Path_75" data-name="Path 75" d="M805.013,1547.217h.615l.167-10.939-.782-12.365Z" transform="translate(-755.711 -1521.171)" fill="#868b8e"/>
              <rect id="Rectangle_7" data-name="Rectangle 7" width="0.616" height="23.304" transform="translate(43.823 2.742)" fill="#868b8e"/>
              <path id="Path_76" data-name="Path 76" d="M803.287,1547.217h.617v-23.3l-1.019,13.539Z" transform="translate(-764.942 -1521.171)" fill="#868b8e"/>
              <path id="Path_77" data-name="Path 77" d="M801.933,1535.64h.619l.241-9.057-.844.076Z" transform="translate(-769.066 -1509.594)" fill="#868b8e"/>
              <path id="Path_78" data-name="Path 78" d="M801.156,1550.8h.619v-24.712l-.928,2.661Z" transform="translate(-773.781 -1511.756)" fill="#868b8e"/>
              <path id="Path_79" data-name="Path 79" d="M799.938,1537.105h.619l.153-10.153-.843-.707Z" transform="translate(-778.027 -1511.059)" fill="#868b8e"/>
              <path id="Path_80" data-name="Path 80" d="M798.87,1549.508h.619s.288-21.119,0-23.307-.619,0-.619,0Z" transform="translate(-782.347 -1515.469)" fill="#868b8e"/>
              <path id="Path_81" data-name="Path 81" d="M798.008,1547.36h.619v-23.3s-.117-.4-.619,0S798.008,1547.36,798.008,1547.36Z" transform="translate(-787.05 -1521.314)" fill="#868b8e"/>
              <path id="Path_82" data-name="Path 82" d="M796.812,1549.445h.619s.784-17.134,0-23.3-.619,0-.619,0Z" transform="translate(-791.334 -1523.399)" fill="#868b8e"/>
              <rect id="Rectangle_8" data-name="Rectangle 8" width="0.621" height="23.304" transform="translate(0 2.742)" fill="#868b8e"/>
            </g>
          </g>
        </g>
        <path id="Path_84" data-name="Path 84" d="M825.915,1520.935c4.375.021,10.592,1.612,14.337,2.429,10.474,2.272,17.454,6.557,17.416,12.32-.053,7.822-13.564,14.087-30.174,13.985s-30.036-6.52-29.988-14.343S809.3,1520.834,825.915,1520.935Z" transform="translate(-776.915 -1518.629)" fill="#d1d1ce"/>
      </g>
    </g>
  </g>
</svg>
