<svg xmlns="http://www.w3.org/2000/svg" width="29.258" height="31.7" viewBox="0 0 29.258 31.7">
  <path id="Path_202" data-name="Path 202" d="M780.454,279.158c.516,3.176,2.57,5.812,3.853,8.694,1.079,2.423,1.819,6.057,3.5,8.091,1.254,1.51,3.948.994,5.6.7.094-2.917,3.248-6.557,4.365-9.424a66.606,66.606,0,0,1,6.51-12.543c2.021-3.041,3.59-6.224,5.35-9.4-1.6,1.375-3.166,1.668-4.6,3.224a82.769,82.769,0,0,0-10.037,13.129c-.814,1.339-4.141,7.073-3.848,8.518-.67-3.311-2.984-10.355-6.105-12.115-.621-.352-4.065-.707-4.592-.008A2.015,2.015,0,0,0,780.454,279.158Z" transform="translate(-780.375 -265.271)" fill="#fff"/>
</svg>
